<?xml version="1.0" standalone="no"?>
<!DOCTYPE svg PUBLIC "-//W3C//DTD SVG 1.1//EN" "http://www.w3.org/Graphics/SVG/1.1/DTD/svg11.dtd" >
<svg xmlns="http://www.w3.org/2000/svg">
<metadata></metadata>
<defs>
<font id="emmettregular" horiz-adv-x="1193" >
<font-face units-per-em="2048" ascent="1638" descent="-410" />
<missing-glyph horiz-adv-x="593" />
<glyph unicode="&#xd;" horiz-adv-x="593" />
<glyph unicode=" "  horiz-adv-x="593" />
<glyph unicode="&#x09;" horiz-adv-x="593" />
<glyph unicode="&#xa0;" horiz-adv-x="593" />
<glyph unicode="!" horiz-adv-x="710" d="M121 1178q0 205 14.5 280.5t34.5 75.5h430q41 0 41 -51q0 -6 -4 -27l-51 -127q-14 -35 -26.5 -82t-29.5 -129q-4 -14 -9 -53t-7 -59q-8 -100 -8 -168q0 -43 2 -60q12 -123 12 -176q0 -47 -8 -61.5t-35 -14.5h-207q-10 0 -18 9q-18 18 -43 81q-6 14 -12 43q-12 68 -27 144 l-31 170q-18 121 -18 205zM162 176q0 86 60.5 146.5t148.5 60.5q86 0 146.5 -60.5t60.5 -148.5t-60.5 -147.5t-146.5 -59.5t-147.5 61.5t-61.5 147.5z" />
<glyph unicode="&#x22;" horiz-adv-x="933" d="M115 1354q0 53 20 139q14 55 20.5 83t15.5 59.5t32 50.5q37 31 84 30q20 0 43 -6q39 -6 55 -18q29 -23 47 -80q14 -41 14 -86q0 -53 -21.5 -99.5t-66.5 -95.5q-35 -35 -53 -51q-51 -41 -108 -37q-43 0 -62.5 30t-19.5 81zM504 1354q0 53 20 139q14 55 20.5 83t15.5 59.5 t32 50.5q37 31 84 30q20 0 43 -6q39 -6 55 -18q27 -21 47 -80q14 -41 15 -86q0 -53 -21.5 -99.5t-66.5 -95.5q-35 -35 -54 -51q-51 -41 -108 -37q-43 0 -62.5 30t-19.5 81z" />
<glyph unicode="#" horiz-adv-x="1228" d="M74 414l30 147h238l74 352h-236l31 148h238l86 414h147l-86 -414h176l88 414h148l-88 -414h235l-31 -148h-235l-76 -352h236l-31 -147h-236l-88 -414h-147l88 414h-178l-88 -414h-148l88 414h-235zM489 561h177l75 352h-178z" />
<glyph unicode="$" horiz-adv-x="1075" d="M72 1085v37t2 37q12 113 82 205q41 53 91 88t94 47t68.5 16.5t32.5 4.5q4 -2 7 4q8 18 8 69q2 14 17 21.5t56 7.5q39 0 53.5 -16.5t20.5 -71.5l117 -31l20 -8q39 -16 80 -34.5t41 -45.5q0 -18 -21.5 -94t-28.5 -90t-24 -14q-23 0 -32 4q-12 6 -70 43q-29 18 -51 20 q-43 8 -43 -45l-2 -88v-104q0 -109 21.5 -133.5t179.5 -92.5q31 -12 61.5 -40.5t67.5 -80.5q49 -74 65 -142.5t16 -127.5q0 -41 -10 -92q-20 -92 -63 -153.5t-123 -110.5l-55 -29l-144 -59q-8 -16 -8 -37q0 -16 6 -51q2 -18 -15.5 -31.5t-58.5 -13.5q-82 0 -81 77v31 q0 2 8 39l-133 20l-105 37q-63 27 -85.5 48.5t-22.5 54.5q2 14 2 20l2 15l12 53l18 71q18 63 45 64q27 0 80 -39l9 -2l79 -43q33 -16 52 -16q35 0 45 57l4 57q0 203 -16.5 248t-118.5 86q-117 49 -184.5 140t-67.5 214zM289 1128q0 -59 24 -94q33 -43 60.5 -59.5t48.5 -9.5 q14 4 20 12q2 2 7 10q-2 6 -3 25v54.5t3 55.5l6 131q-23 29 -49 29q-39 0 -91 -63q-6 -10 -16 -33t-10 -58zM584 586l8 -121v-71.5v-35.5q0 -35 2 -39q8 -10 20.5 -21t28.5 -11q18 0 34.5 9t41.5 34q43 47 43 139q0 53 -55 117q-23 27 -41.5 35t-28.5 8q-30 0 -53 -43z" />
<glyph unicode="%" horiz-adv-x="1812" d="M57 1092q0 162 54 270q84 172 286 172q389 0 389 -477q0 -33 -3 -50.5t-15 -58.5q-37 -129 -93.5 -191.5t-156.5 -86.5q-33 -8 -80 -8h-49q-25 6 -35 8q-141 25 -213 108q-82 95 -82 269q-2 12 -2 45zM324 1087q0 -61 13 -97t37.5 -57.5t55.5 -21.5q49 0 72 56 q10 27 15 53.5t5 83.5q2 31 2 55q0 53 -6 77t-18 40q-43 53 -82 53q-23 0 -49 -22q-18 -16 -27 -31q-16 -27 -16 -82l-2 -51v-19v-37zM561 37q0 33 25 102q33 80 53 142l27 75l188 486l92 243l92 246l39 78q27 55 39 71.5t31 30.5q45 29 76 29q8 0 24 -4q41 -14 37 -53 l-10 -47q-8 -25 -15.5 -38.5t-15.5 -25.5l-588 -1329l-86 -43q-8 29 -8 37zM1014 403q0 219 102.5 335t282.5 116q172 0 259 -123t87 -352q0 -33 -4 -52.5t-15 -58.5q-37 -129 -93 -191.5t-156 -84.5q-8 -2 -31 -4t-60 -2h-32q-166 0 -253 125t-87 292zM1282 412 q0 -63 13.5 -99.5t38 -58t52.5 -21.5q51 0 74 56q10 25 15.5 52.5t5.5 80.5q2 25 2 35q0 31 -7.5 70.5t-17.5 68.5q-27 57 -78 57q-29 0 -53 -23.5t-33.5 -45t-9.5 -68.5l-2 -47v-23v-34z" />
<glyph unicode="&#x26;" horiz-adv-x="1769" d="M41 369q0 127 117 264l49 51l108 102l15 19q6 16 6 29q0 16 -17.5 50t-58.5 101q-23 37 -37 102q-6 35 -6 68q0 154 134 255t368 101q240 0 348.5 -77.5t108.5 -233.5q0 -72 -40 -143.5t-141 -167.5l-41 -37q-45 -39 -45 -64q0 -18 19 -53l30 -55l7 -12l16 -25l14 -18 l52 65q135 150 284 193q78 23 142 22q117 0 190.5 -57t73.5 -135q0 -88 -70 -88q-27 0 -53 8q-49 14 -90 14q-59 0 -115 -43l-86 -76l-63 -65q-16 -16 -17 -45q0 -53 55 -82l43 -17q14 -4 28.5 -6t33.5 -2q53 0 96 25l66 35q4 4 10 2q6 -4 13 -18.5t7 -35.5q0 -23 -10 -57.5 t-37.5 -102t-105.5 -120.5t-174 -53q-20 -2 -31 -2q-84 0 -188 53l-62 35l-31 20l-51 -18l-12 -6l-41 -23q-39 -20 -133 -43q-55 -14 -112.5 -20.5t-106.5 -6.5q-186 0 -294 70t-147 207q-18 61 -18 117zM465 408l4 -33q27 -119 135 -119q23 0 46.5 3t45 24.5t21.5 50.5 q0 12 -2 18q-6 20 -10 29q-12 18 -17 27l-43 63l-14 16l-39 45q-16 16 -39 17q-43 0 -65.5 -55t-22.5 -86zM610 1184q0 -43 33 -135l16 -39q111 27 132 147l2 49q-2 35 -27 57.5t-55 22.5q-14 0 -31 -6l-29 -16q-41 -31 -41 -80z" />
<glyph unicode="'" horiz-adv-x="415" d="M33 1569q0 35 16 61q8 14 41 51q45 31 107 31q25 0 63.5 -6t58.5 -18q35 -21 60 -80q14 -35 14 -70q0 -53 -33 -113q-25 -43 -73 -98q-55 -45 -84 -61q-49 -29 -99 -29q-14 2 -20 2q-10 14 -10 23q0 12 14 26q51 47 51 49q2 23 6 45q0 14 -4 23q-37 35 -73 70 q-41 45 -35 94z" />
<glyph unicode="(" horiz-adv-x="673" d="M119 825v39q0 82 4 130t14 100q37 201 113 311q70 100 172 125q49 12 80 12q49 0 84 -43q20 -27 51 -80q39 -76 39 -92q0 -8 -11.5 -23.5t-17.5 -17.5q-14 -4 -78 -4q-45 0 -110 -59q-33 -29 -64 -93q-37 -76 -65.5 -178t-28.5 -315q0 -176 49 -391q16 -82 22.5 -108.5 t10.5 -35.5q37 -117 37 -135q0 -16 -10.5 -28.5t-24.5 -24.5l-31 -18q-12 -6 -26 -7q-41 0 -52 33l-16 58l-18 61l-13 47l-20 74l-8 35l-13 53l-12 57l-24 113q-23 113 -27 146.5t-4 135.5z" />
<glyph unicode=")" horiz-adv-x="673" d="M0 1321q-4 14 6 39q2 4 33 59q41 74 61 94q29 29 72 29q33 0 82 -12q100 -25 173 -129.5t112 -306.5q16 -104 16 -230v-65l-2 -97q0 -115 -3 -140t-28 -142l-22 -113l-13 -57l-14 -53l-8 -35l-19 -74l-14 -47l-16 -61l-19 -58q-10 -33 -51 -33q-14 0 -27 7l-30 18 q-35 35 -35 51q0 20 39 137l33 144q27 121 38 210t11 181q0 201 -31 317.5t-61.5 176t-67.5 92.5q-53 49 -103 58t-89 9l-9 6q-8 10 -14 25z" />
<glyph unicode="*" horiz-adv-x="806" d="M55 1239q0 8 6.5 48t19.5 59.5t46 19.5q12 0 32.5 -3t33.5 -5l96 -21l4 23q0 117 13 158t67 41q23 0 49.5 -7.5t52 -12.5t41.5 -41t16 -122l-2 -37l72 25q37 14 70 14q37 0 56.5 -28.5t19.5 -98.5q2 -33 -23 -55l-76 -22q-20 -8 -37 -17q-6 -2 -34 -22l47 -68l47 -66 q4 -27 -22.5 -60.5t-78.5 -51.5q-8 -4 -26 -4q-23 0 -39.5 12t-28.5 33.5t-24.5 42t-38.5 45.5l-52 -70q-29 -39 -51 -57.5t-45 -18.5q-37 0 -106 84q-8 8 -8 23l51 88l33 72l-78 22l-82 17q-20 16 -21 61z" />
<glyph unicode="," horiz-adv-x="563" d="M74 197q2 6 10 14q27 25 55 49l11 6l63 56l55 45q20 14 51 14q41 0 84 -28.5t66 -78.5q16 -39 16 -98q0 -35 -4 -53q-25 -131 -166 -197l-36 -14l-13 -4l-61 -21l-10 -2l-33 -14l20 45q23 63 23 104q0 80 -101 136l-28 12q-10 4 -2 29z" />
<glyph unicode="-" horiz-adv-x="796" d="M72 565q0 20 6 45l37 95q37 74 59.5 98t48.5 24h453q47 0 47 -75q0 -45 -28.5 -125t-48 -106.5t-48.5 -26.5q-8 0 -29 4h-444q-53 0 -53 67z" />
<glyph unicode="." horiz-adv-x="565" d="M74 176q0 84 61.5 145.5t147.5 61.5t146 -60.5t60 -148.5t-60 -147.5t-146 -59.5t-147.5 61.5t-61.5 147.5z" />
<glyph unicode="/" horiz-adv-x="813" d="M45 59q-2 14 2 31q2 6 29 76l78 201l16 45l59 147l37 96l277 736q31 80 69.5 119.5t79.5 39.5q27 0 46.5 -13t25.5 -29.5t2 -30.5q-18 -51 -43 -99q-14 -31 -48 -108.5t-106 -245.5l-14 -39l-33 -82l-78 -172l-18 -43l-131 -299l-33 -76l-43 -96l-57 -127l-23 -45 q-12 -25 -35 -41q-10 -6 -20 -6q-17 0 -27 16z" />
<glyph unicode="0" d="M45 721v76l4 73q0 311 148 482q137 158 372 157q63 0 100.5 -2t75.5 -12q141 -37 223.5 -125t135.5 -262q20 -68 31.5 -140.5t11.5 -176.5v-113v-35v-27q0 -92 -10 -139q-43 -250 -145.5 -366.5t-291.5 -141.5q-49 -6 -96 -6q-66 0 -121 12q-121 25 -194.5 79.5 t-138.5 170.5q-51 88 -78 203t-27 293zM446 756l3 -56q0 -49 4 -84q6 -27 6 -36q12 -98 40.5 -144.5t78.5 -58.5q25 -4 34 -4q68 0 109 71.5t41 223.5v198v8l-14 144q-20 172 -140 172q-68 0 -102.5 -56.5t-52.5 -209.5q-7 -55 -7 -168z" />
<glyph unicode="1" horiz-adv-x="1196" d="M258 1354q0 14 4 24q4 14 45 35t66 29l108 39l11 2l51 12q78 12 127 12q76 0 106.5 -24.5t30.5 -79.5q0 -29 -12.5 -89.5t-20.5 -131t-8 -207.5v-209t2 -193q0 -113 6.5 -189t18.5 -148q25 -139 24 -185q0 -51 -31 -51h-391q-18 0 -25.5 49t-7.5 217v123v90v78l5 137 l8 213v94.5t2 85.5q0 102 -16.5 140.5t-88.5 91.5q-14 8 -14 35z" />
<glyph unicode="2" horiz-adv-x="1191" d="M84 80q0 37 6 96.5t45 157.5q27 72 75 139.5t132 153.5q37 37 78 71q49 43 125 99q18 14 38.5 37.5t47.5 62.5l26 47q33 78 33 131q0 90 -86 113q-20 4 -31 4q-43 0 -92 -29.5t-119 -99.5l-24 -31l-64 -78q-10 -12 -33.5 2.5t-50.5 63.5l-32 59q-45 86 -45 129 q0 57 96 152q145 139 418 139q45 0 84 -5t100 -28q139 -51 204.5 -139t65.5 -231q0 -43 -6 -92q-18 -152 -145 -287q-33 -39 -127 -109l-55 -39l-37 -28l-4 -4l-82 -68q-49 -41 -67.5 -66.5t-14.5 -44.5q2 -10 12 -16q2 -2 6 -4l78 6h88l88 -10q31 -4 45 -2q43 4 77 24.5 t67 65.5l22 33q37 -41 54.5 -96.5t17.5 -125.5q-4 -29 -9.5 -49t-15.5 -41q-39 -88 -102.5 -122.5t-206.5 -34.5q-39 0 -91 3t-147 11l-69 8q-14 2 -25 2l-82 -8l-35 -4l-43 -6l-77 -12q-33 -4 -41 -5q-29 0 -43 13q-27 23 -27 92z" />
<glyph unicode="3" horiz-adv-x="1200" d="M78 188q0 20 15.5 48t45.5 69l45 57l11 13l20 24l23 29q18 8 38 -6l11 -8l14 -13q55 -49 101.5 -64t86.5 -15q113 0 160 106l15 43q4 25 4 37q0 123 -138 192q-41 23 -100 31l-47 6h-29q-12 2 -48 10.5t-30 45.5q0 20 13.5 37.5t60.5 58.5l96 94l29 27l64 69 q53 55 69.5 77t16.5 40q0 8 -7 21q-14 27 -47 26q-35 0 -96 -20l-113 -35q-72 -25 -106 -25q-66 0 -80 119q-4 33 -6 43q-2 16 -12.5 52t-10.5 59q0 37 50 37l47 2h22h729q63 0 64 -84q0 -61 -35 -158q-12 -29 -28.5 -60.5t-49.5 -80.5q-43 -66 -74 -97q-57 -59 -71.5 -76.5 t-12.5 -27.5q2 -12 11 -19q6 -4 65 -32q53 -23 101 -74q109 -113 108 -285q0 -76 -24 -159q-45 -158 -173 -250t-313 -92q-23 0 -42 1t-79.5 10t-108.5 22.5t-75 27.5q-100 53 -140 84t-40 63z" />
<glyph unicode="4" d="M-2 586q0 86 100 315q27 63 58.5 126t64.5 114l8 14l101 143q68 100 112.5 138.5t85.5 38.5h340q27 0 19 -27q-4 -12 -10 -21q-6 -8 -30 -31.5t-35 -36.5t-71 -87q-92 -113 -142 -189.5t-114 -201.5l-57 -123q-6 -16 1 -31.5t22.5 -22t33.5 -6.5q25 0 52 15q43 25 53 42 t41 115q6 20 14 38t35 61q49 84 92 127q27 27 42 40t34 27q59 39 75.5 48.5t34.5 9.5q33 0 33 -27l-4 -43l-2 -8l-10 -56q-12 -47 -19 -110l-2 -12l-8 -103q0 -78 18.5 -109.5t76 -50t78 -23.5t30.5 -7q2 -2 2 -6q8 -29 8 -107q0 -111 -16.5 -129t-120.5 -18l-47 4 q-12 2 -23 -4q-20 -16 -25 -35t-5 -84v-127l2 -14q0 -86 -4.5 -119t-57.5 -33h-311q-37 0 -37 45l-2 12l2 99v96l2 20l6 84l2 29q0 31 -14 31q-10 0 -33 -6l-100 -25l-41 -10q-137 -35 -172 -35q-14 2 -21 2q-88 12 -116.5 61.5t-28.5 182.5z" />
<glyph unicode="5" horiz-adv-x="1196" d="M86 147q0 25 20 70l11 25l22 47l6 16l27 55q31 59 51 60q14 0 62 -27l51 -33l6 -4q20 -14 84 -28l43 -9q14 -2 39 -2q129 0 164 111q12 37 12 72q0 76 -46 128t-110 52q-39 0 -96 -14l-84 -33l-26 -15q-12 -6 -29 -6q-27 0 -93.5 27t-80 57.5t-13.5 132.5l7 113v10 l18 121l16 96l5 27l4 16l22 107l17 76q12 47 20 63.5t16 16.5h734q72 0 71 -95q0 -47 -31.5 -116.5t-44 -83t-53.5 -13.5l-53 2h-14l-105 11l-106 8q-90 0 -113.5 -13.5t-50.5 -91.5q-16 -41 -16 -75q0 -53 61 -54l57 9q43 6 84 6q207 0 334 -131t127 -344q0 -266 -223 -420 q-102 -72 -244 -97q-20 -4 -49 -6t-55 -2q-49 0 -103.5 7.5t-86.5 13.5t-62 18q-119 43 -161 72t-42 67z" />
<glyph unicode="6" d="M61 672q0 367 163 584t448 245q23 4 45 4h35h39l12 -2l106 -18q66 -12 87.5 -25.5t21.5 -44.5q0 -8 -4 -41l-39 -102q-37 -104 -68 -105q-25 0 -108 39q-16 6 -39 6q-43 0 -87 -15t-87 -50q-31 -27 -45 -51q-33 -57 -33 -88q0 -20 14 -35q8 -10 13 -10q14 2 151 26 q33 4 51 4q37 0 52.5 -3t48.5 -13q86 -25 146 -82t103 -160q18 -43 29.5 -94t11.5 -104q0 -215 -80.5 -342t-265.5 -195q-78 -31 -170 -31q-36 0 -77 6q-227 31 -347 193q-127 174 -127 504zM492 504q8 -78 32.5 -119t63.5 -53q18 -6 37 -6q43 0 76.5 32.5t33.5 102.5 q0 18 -1 34.5t-3 30.5q0 47 -7 68.5t-28 46.5q-29 41 -86 41q-59 0 -90 -49q-10 -16 -16 -29q-12 -26 -12 -59v-41z" />
<glyph unicode="7" horiz-adv-x="1196" d="M109 1401q0 45 12 59.5t45 14.5h846q16 0 26.5 -41t10.5 -152q0 -37 -19.5 -76t-101.5 -159l-45 -70q-57 -94 -91 -167t-55 -140q-45 -166 -45 -250q0 -37 10 -72q43 -160 168 -160l29 2q0 -68 -37 -116.5t-125 -85.5q-80 -31 -153 -31q-55 0 -99 14q-242 78 -241 312 q0 72 24 157q16 61 51 129t168 291l37 55q72 92 98.5 134.5t26.5 64.5q0 10 -10 23.5t-24.5 17.5t-47.5 4h-59h-21l-90 4q-74 0 -102.5 -12t-79.5 -70l-10 -10q-6 -10 -21 -14q-20 -4 -28 10l-11 25v8l-8 53q-29 190 -28 248z" />
<glyph unicode="8" horiz-adv-x="1196" d="M70 367q0 90 39 170q18 39 36.5 62.5t81.5 94.5l35 47l23 27l-27 31q-6 4 -12 14q-18 29 -37 59q-41 66 -61.5 125.5t-20.5 114.5q0 14 2 31.5t2 27.5l12 68q29 100 93.5 158.5t183.5 93.5q72 18 160 18h39.5t46.5 -4q147 -14 226 -63t117 -113.5t38 -159.5 q0 -86 -15.5 -132t-68.5 -109l-64 -76q-23 -27 -22 -33q0 -6 22 -33l88 -75q55 -43 91 -130t36 -188q0 -268 -250 -379q-41 -16 -84 -28.5t-92 -12.5q-61 -6 -117 -6q-219 0 -346 91.5t-151 250.5q-4 37 -4 58zM475 428q0 -55 31 -88t78 -33q8 0 28 4q84 20 84 123 q0 25 -6 55.5t-26.5 59.5t-63.5 63l-29 19q-53 -47 -74.5 -108.5t-21.5 -94.5zM489 1106q4 -37 19.5 -69.5t52.5 -69.5l33 -27q57 63 70 143q4 37 4 50q0 47 -21.5 82.5t-60.5 35.5q-31 0 -51 -20q-45 -43 -46 -125z" />
<glyph unicode="9" horiz-adv-x="1191" d="M61 938q0 213 82 341t267 196q80 31 176 30q33 0 69 -6q227 -31 346 -192q127 -174 127 -504q0 -369 -161.5 -585t-446.5 -247h-63.5t-57.5 -2l-12 2l-104 19q-70 12 -90.5 24.5t-20.5 44.5q0 8 4 41l39 103q12 33 27.5 68.5t42.5 35.5q14 0 36.5 -8t69.5 -31 q16 -6 41 -6q43 0 87 15.5t85 50.5q16 14 27 24q6 6 18 27q33 57 33 88q0 23 -14 35q-10 10 -13 10q-10 0 -151 -29q-29 -4 -45 -4q-43 0 -105 17q-168 48 -250 241q-20 43 -31.5 93.5t-11.5 107.5zM457 987l2 -37q0 -41 9 -67.5t26 -51.5q31 -41 84 -40q59 0 90.5 49 t31.5 108q0 18 -2 29q-10 76 -32.5 113.5t-63.5 52.5q-18 6 -37 6q-43 0 -75.5 -33t-32.5 -129z" />
<glyph unicode=":" horiz-adv-x="655" d="M119 176q0 84 61.5 145.5t147.5 61.5t146.5 -60.5t60.5 -148.5t-60.5 -147.5t-146.5 -59.5t-147.5 61.5t-61.5 147.5zM119 997q0 86 61.5 145.5t147.5 59.5t146.5 -60.5t60.5 -146.5q0 -88 -60.5 -147.5t-146.5 -59.5q-88 0 -148.5 60.5t-60.5 148.5z" />
<glyph unicode=";" horiz-adv-x="612" d="M119 197q2 6 10 14q27 25 55 49l11 6l63 56l55 45q20 14 52 14q41 0 84 -28.5t65 -78.5q16 -39 16 -98q0 -35 -4 -53q-25 -131 -166 -197l-36 -14l-13 -4l-61 -21l-10 -2l-33 -14l20 45q23 63 23 104q0 80 -100 136l-29 12q-10 4 -2 29zM119 997q0 86 61.5 145.5 t147.5 59.5t146.5 -60.5t60.5 -146.5q0 -88 -60.5 -147.5t-146.5 -59.5q-88 0 -148.5 60.5t-60.5 148.5z" />
<glyph unicode="?" horiz-adv-x="946" d="M78 1366q-10 18 7 46t73 71q27 20 76 39.5t96 28t86 8.5h26q203 0 316.5 -118t113.5 -311q0 -131 -92 -260q-49 -68 -127 -122t-100.5 -77.5t-30.5 -64.5q-14 -59 -14 -71q-12 -14 -25 -15h-237q-14 0 -23.5 18.5t-9.5 65.5l-4 64v10q0 94 24.5 134t137 136t112.5 205 q0 25 -10 59q-27 84 -113 84q-31 0 -56 -13t-40.5 -26.5t-38.5 -37.5q-14 -16 -47 12q-47 39 -100 135zM168 176q0 84 61.5 145.5t147.5 61.5t146.5 -60.5t60.5 -148.5t-60.5 -147.5t-146.5 -59.5t-147.5 61.5t-61.5 147.5z" />
<glyph unicode="A" horiz-adv-x="1458" d="M88 387q0 49 6 114.5t15.5 128t17.5 97.5t12 51q27 100 52.5 169t56.5 126q82 154 184 260q43 47 96 86q172 133 232 133q53 0 186 -92l92 -76q154 -147 236 -383.5t82 -554.5l-4 -90q0 -201 -29 -293q-20 -63 -45 -63h-406q-25 0 -24 31q0 27 20 80q14 35 21.5 58.5 t15.5 59.5l8 35l19 90q6 25 10 46.5t4 48.5q1 5 1 10q-1 33 -25 55q-28 26 -76 25q-23 0 -54.5 -7.5t-70.5 -20.5t-62 -22q-76 -35 -106.5 -67.5t-30.5 -85.5q0 -51 39 -152l21 -41q31 -51 43 -77.5t10 -38.5q0 -27 -25 -27h-411q-14 0 -28.5 19.5t-35.5 74.5l-29 107 q-18 78 -18 186zM561 831q0 -12 6 -18t73 -9t138 -3h15q116 0 116 66q0 28 -18 75l-31 78l-4 10l-37 66q-25 47 -63 47q-23 0 -45.5 -23.5t-55.5 -77.5l-51 -84l-26 -67q-16 -39 -17 -60z" />
<glyph unicode="B" horiz-adv-x="1368" d="M119 805q0 180 6 295t14 170q23 133 60 169t157 36h512q104 0 166 -25q174 -70 174 -215q0 -133 -151 -311l-47 -52q-18 -18 -19 -26q0 -8 19 -27l69 -61q55 -49 93 -96.5t65 -102.5q59 -125 59 -223q0 -41 -10 -78q-33 -123 -110.5 -180.5t-243.5 -73.5l-66 -4h-655 q-31 0 -47 72l-12 71l-2 13q-18 182 -21.5 220t-3.5 132t-2 163.5t-4 133.5zM528 1008q0 -49 29 -86q47 6 83 27.5t83 74.5q14 14 34.5 45t30 48.5t9.5 43.5q0 37 -21.5 62.5t-54.5 25.5q-70 0 -117 -40t-67 -134q-8 -35 -9 -67zM541 481q0 -25 2 -37q10 -109 34.5 -148.5 t88.5 -39.5q23 -2 30 -2q18 0 41 6q121 31 121 182q0 51 -27 101q-55 112 -115 112h-1q-47 0 -144 -67l-22 -19q-8 -39 -8 -88z" />
<glyph unicode="C" horiz-adv-x="1275" d="M57 743q0 252 105 428q98 168 232 250t333 82h70.5t68.5 -6q106 -18 165 -50t91 -87q27 -45 27 -98q0 -70 -43 -127.5t-123 -83.5l-35 -9q-41 -6 -63 -6q-31 0 -38 16.5t-7 77.5q0 31 -28 50.5t-73 19.5q-35 0 -63 -10q-72 -20 -122 -100t-71 -224q-6 -47 -6 -92v-31 q0 -102 27.5 -178t75.5 -133q82 -94 192 -117q47 -10 82 -10q189 0 293 195l18 43q31 -23 48.5 -62t17.5 -94q0 -31 -6 -68q-18 -137 -119.5 -229t-274.5 -119q-23 -4 -62.5 -4t-66.5 -2q-182 0 -289.5 52.5t-197.5 175.5l-37 55q-88 141 -110 340q-8 76 -9.5 106.5 t-1.5 48.5z" />
<glyph unicode="D" horiz-adv-x="1384" d="M119 934l2 16l18 240q16 199 42 242t124 43h424q88 0 203 -64q61 -35 118.5 -97.5t118.5 -164.5l43 -78q55 -117 80 -258t25 -260q0 -188 -57.5 -313t-161.5 -185q-55 -29 -95 -42t-67 -13h-703q-20 0 -35.5 27.5t-34 108.5t-29.5 190.5t-11 232.5q0 82 -2 205t-2 170z M543 823l4 -166l18 -161q8 -80 19.5 -121t27.5 -60q43 -49 99 -49q68 0 112 76q29 45 56 139q16 57 16 150q0 45 -6 104l-10 66q-14 94 -50 178q-25 70 -49 108q-31 49 -48 70t-38.5 32t-46.5 11q-53 0 -76 -49q-12 -25 -17 -57.5t-5 -98.5z" />
<glyph unicode="E" horiz-adv-x="1208" d="M119 379v37l2 188l4 107l4 82l4 69l8 117l17 151l28 146q23 125 58 162t127 37h700q37 0 67.5 -10.5t22.5 -32.5q-14 -39 -37 -74l-37 -86q-16 -45 -18 -49q-12 -29 -29 -29q-10 0 -33.5 9t-50.5 22q-59 20 -95 24t-42 4q-18 2 -39 0q-113 0 -174 -47t-86 -143 q-6 -25 -6 -43q0 -51 61 -51q20 0 33 2l92 22q20 6 41 9.5t52 3.5l24 2q104 0 137 -11.5t33 -46.5q0 -14 -2 -22l-24 -56q-25 -59 -29 -71q-16 -43 -27.5 -84t-50.5 -41t-119 33q-14 6 -24 4q-31 0 -58 -15q-8 -4 -61 -41q-33 -23 -52.5 -67.5t-19.5 -110.5 q0 -100 63.5 -165.5t166.5 -65.5q20 0 49.5 3t69.5 14t65 24l86 51q8 8 24.5 -6.5t42.5 -71.5l7 -14l24 -62l35 -73q16 -33 21.5 -49.5t5.5 -26.5q0 -37 -33 -37h-959q-29 0 -45 47t-16 176z" />
<glyph unicode="F" horiz-adv-x="1155" d="M119 629l2 213q0 172 7 268t22 178l14 76q12 51 19.5 67.5t25.5 28.5q16 10 39.5 12.5t52.5 2.5h811q43 0 43 -56q0 -18 -2 -28q-2 -14 -9 -38t-30 -93l-6 -41q-4 -20 -39 -21q-8 0 -45 8l-63 17l-41 12l-64 10q-18 2 -51 2q-104 0 -168 -47t-86 -137l-8 -49 q-2 -10 -2 -19q0 -27 13 -51q17 -33 26 -31l178 58q20 4 67 4h58h39q8 0 52 -10.5t44 -46.5q0 -29 -27 -80q-18 -39 -29.5 -82t-20.5 -77t-32 -34q-10 0 -35 6q-10 0 -59 17q-16 4 -31 4q-25 0 -59 -8q-92 -23 -131 -76t-39 -168q0 -66 12 -156l4 -20q33 -139 33 -193 q0 -51 -35 -51h-381q-31 0 -47 81t-16 335z" />
<glyph unicode="G" horiz-adv-x="1341" d="M57 694q0 86 25 183q53 229 154.5 360t281.5 207q80 35 161 48t163 13q61 0 119 -10q113 -18 172 -74.5t59 -132.5q0 -51 -29.5 -105.5t-99.5 -84.5l-21 -8q-80 -31 -108 -31q-37 0 -56.5 72.5t-101.5 72.5q-29 0 -60.5 -6t-76.5 -49t-94 -133q-68 -125 -68 -268 q0 -201 55 -318q49 -104 132 -123q31 -6 55 -6q109 0 137 119q4 14 4 43q0 43 -20.5 77.5t-67.5 75.5l-31 23q-14 6 -10 18q4 16 17 23l380 164q8 4 21 4q20 0 29.5 -34t15.5 -83l25 -110l10 -39q18 -98 18 -181q0 -178 -93 -279.5t-294 -144.5q-31 -6 -58.5 -10t-60.5 -4 q-168 0 -278 45q-215 90 -328 305q-41 74 -59.5 168t-18.5 213z" />
<glyph unicode="H" horiz-adv-x="1464" d="M119 600q0 129 2 214t8 157l29 235q18 162 38.5 215.5t47.5 53.5h383q29 0 28 -37q0 -14 -10 -41l-43 -101q-2 -2 -10 -28q-27 -74 -35 -105q-25 -82 -25 -141q0 -39 12.5 -60.5t28.5 -21.5q29 0 53.5 1t83 7t89.5 6h28q88 0 88 72q0 18 -6 41l-14 61l-2 11 q-37 135 -72 215l-26 63q-6 18 -7 31q0 27 23 27h379q29 0 51 -58q31 -78 55 -260l37 -274l6 -117q0 -72 2 -124t5 -97q0 -346 -19.5 -445.5t-75.5 -99.5h-381q-20 0 -20 29q0 33 29 112l30 115q29 109 29 139q0 152 -2 170q-8 80 -82 105q-16 6 -41 6q-27 0 -62.5 -9.5 t-84.5 -29.5q-74 -31 -109 -81t-35 -142q0 -74 25 -195l10 -35q43 -123 43 -159q0 -25 -22 -25h-385q-18 0 -33 37t-24 111.5t-12 115.5t-3 150z" />
<glyph unicode="I" horiz-adv-x="718" d="M121 819l4 84l6 133q0 78 6 133q10 59 13 82l18 103q14 80 30.5 100.5t75.5 20.5h334q25 0 25 -43q0 -31 -22.5 -99.5t-37.5 -142.5q-20 -111 -20 -246q0 -72 -1 -140.5t-1 -131.5v-85t8 -110l29 -192l4 -33l8 -57l16 -93l11 -53l2 -14q6 -35 -13 -35h-421 q-12 0 -23.5 24.5t-24.5 90.5l-6 51l-12 182l-2 37q0 115 -3 273.5t-3 160.5z" />
<glyph unicode="J" horiz-adv-x="837" d="M-29 150q0 12 4.5 29.5t10.5 35.5l30 72l21 41q20 33 43.5 47t32.5 4l51 -64q24 -32 55 -32h2q27 0 41 20.5t17 40.5l10 68v8q0 127 2 224t4 190l-2 61l-6 147q0 70 -8.5 125t-12.5 80q-22 108 -22 165q0 62 35 63h374q35 0 49.5 -68t14.5 -287v-125.5t2 -140.5l-2 -96 l-2 -103q0 -229 -34 -353t-99 -202q-111 -131 -279 -131q-39 0 -82 6q-129 18 -189.5 63.5t-60.5 111.5z" />
<glyph unicode="K" horiz-adv-x="1349" d="M119 514v88q0 84 6 198.5t6 143.5q35 358 54.5 444.5t66.5 86.5h350q33 0 33 -45q0 -31 -19 -91l-26 -96l-21 -96l-2 -17l-10 -77q-8 -70 -8 -91v-6q4 -39 37 -26q12 6 29.5 26.5t54.5 77.5l57 92l4 7l12 22l41 82l45 92l7 12l47 105q8 29 32 29h287q31 0 50.5 -22.5 t19.5 -39.5q0 -29 -47 -125l-33 -69l-18 -35l-25 -45q-33 -63 -55.5 -99t-40.5 -61l-66 -90l-2 -6q-4 -4 -6 -13q-2 -6 -2 -10q0 -14 29 -49l18 -20l35 -39l45 -64q45 -70 73.5 -134.5t63.5 -180.5l16 -60l3 -8l26 -127q6 -31 11.5 -67.5t5.5 -57.5q0 -53 -25 -53h-373 q-25 0 -44 19.5t-23 56.5l-13 102l-4 25l-14 82l-21 98l-2 8l-26 90q-6 29 -10 39q-12 25 -17 37q-12 33 -51 33q-25 0 -46.5 -18.5t-29.5 -30.5q-23 -35 -34 -63.5t-11 -71.5q0 -27 6 -83.5t17 -134.5l6 -41l12 -67q2 -12 2 -23q0 -57 -65 -57h-357q-33 0 -47 97.5 t-14 416.5z" />
<glyph unicode="L" horiz-adv-x="1097" d="M119 502q0 8 10 147q4 55 4 125l19 187l4 30l47 297q18 113 38.5 150t59.5 37h399q27 0 27 -33q0 -8 -6 -25q-14 -43 -27.5 -76.5t-34.5 -83.5q-8 -18 -22 -63q-25 -78 -39 -135q-45 -170 -56.5 -266.5t-13.5 -137.5t-2 -88v-22q0 -262 176 -262q61 0 146 36l47 27 q96 66 106 66q14 0 46 -52l55 -219l24 -106q0 -14 -8 -25q-8 -10 -20 -10h-893q-53 0 -68.5 56.5t-15.5 281.5z" />
<glyph unicode="M" horiz-adv-x="1734" d="M119 602v189.5t6 150.5q0 319 31 442q23 90 65 91h330q45 0 71.5 -14.5t69.5 -61.5q14 -16 31.5 -46t40.5 -77l49 -102l33 -70l24 -57l19 38l18 37l39 74q29 51 45.5 80t32.5 51q63 98 104 123t140 25h245q51 0 75 -96.5t24 -409.5l2 -76q0 -90 -2 -199.5t-2 -144.5 l-25 -260q-29 -193 -48 -241t-69 -48h-364q-31 0 -31 35l51 168q4 16 13 55q18 98 32 234q8 63 9.5 87.5t1.5 41.5v127t2 104v29q0 37 -6 80q-45 -68 -76 -132q-51 -102 -92 -233q-27 -86 -33 -121q-18 -92 -35 -119q-23 -37 -70 -37q-33 0 -94 17q-27 6 -40 30.5t-31 102.5 l-33 117l-17 51l-22 65l-6 19l-19 55q-35 98 -94 176q-12 -102 -12 -200q0 -111 18 -281l19 -139q29 -113 43 -181.5t14 -99.5q0 -51 -47 -51h-359q-29 0 -40 51q-18 74 -19 266z" />
<glyph unicode="N" horiz-adv-x="1472" d="M121 518v316q0 119 10 243.5t10 145.5l2 8l15 102q10 82 44 112t113 30h195q27 0 56.5 -15.5t70.5 -56.5q25 -25 66.5 -85.5t69.5 -103.5t56.5 -92t59.5 -108q20 -41 38.5 -79t39.5 -89q12 72 12 133q0 51 -10 139l-8 66l-7 49l-18 113q-16 72 -16 102q0 27 14 27h338 q16 0 26.5 -30t16.5 -60.5t13 -101.5t10 -97.5t9.5 -133t6.5 -221.5v-247l-2 -37l-9 -211q0 -193 -23.5 -264.5t-59.5 -71.5h-345q-14 0 -24 15.5t-27 64.5l-10 29l-37 124q-29 104 -82 238l-53 129q-59 129 -92 182.5t-82 96.5v-95q0 -203 8 -292q0 -4 21 -156l18 -141 l2 -15q10 -45 14 -82t4 -55q0 -43 -20 -43h-348q-41 0 -57 45q-8 31 -13.5 88t-5.5 150z" />
<glyph unicode="O" horiz-adv-x="1425" d="M59 565q0 156 47 314q33 109 76 200q37 82 80 144q66 92 133.5 152.5t132.5 88.5q100 45 189 45q80 0 162 -34.5t170 -110.5q100 -88 184 -244q23 -39 43 -96t39 -131q51 -205 51 -367q0 -238 -107.5 -367.5t-302.5 -154.5l-71 -4h-471q-135 0 -228 115 q-100 125 -123 354q-2 33 -3 57.5t-1 38.5zM479 578q0 -133 53.5 -188.5t172.5 -55.5q115 0 161.5 37t71.5 147q8 27 8 72q0 76 -35 235q-8 31 -13 54.5t-21 66.5q-29 78 -39.5 100.5t-42.5 77.5q-35 49 -78 50q-47 0 -82 -49.5t-53.5 -88.5t-47 -124t-42 -168.5 t-13.5 -165.5z" />
<glyph unicode="P" horiz-adv-x="1263" d="M123 471v297q0 123 2 190.5t10 144.5t12.5 113.5t22.5 151.5l12 55q12 51 51 52h768q111 0 183 -60q108 -83 108 -228q0 -75 -31.5 -162t-113.5 -171q-90 -92 -262 -197l-80 -47l-29 -16q-111 -59 -145.5 -99t-34.5 -108q0 -33 6 -80l16 -110l3 -11q18 -84 18 -125 q0 -61 -51 -61h-406q-18 0 -28 49l-9 49v15q-12 106 -17 181t-5 177zM561 891q0 -45 8 -78l64 37q127 82 182 158q42 58 42 115q0 9 -1 18q-14 108 -119 108h-2q-43 0 -86 -20q-31 -14 -48 -45t-23 -90l-11 -99l-2 -20q-2 -27 -3 -50.5t-1 -33.5z" />
<glyph unicode="Q" horiz-adv-x="1370" d="M59 795q0 106 17 188q27 125 68.5 208t111.5 150q94 96 210 131t298 35q25 0 50.5 -5t64.5 -15q176 -51 277 -179t140 -360q12 -84 13 -166q0 -86 -9.5 -166.5t-21.5 -130.5l-43 -174q2 -10 6 -16q4 -8 27 -37l22 -29l19 -20q12 -14 24.5 -50t22.5 -102q2 -10 2 -28v-19 q-4 -8 -6 -24.5t-35 -12.5q-14 4 -27 13q-10 8 -55 53l-4 4l-53 49l-21 21l-45 43l-70 -66q-80 -66 -144 -92.5t-161 -26.5l-59 -2q-397 0 -553 371q-33 78 -49.5 184.5t-16.5 270.5zM481 735l8 -160q20 -154 53 -214t101 -70q29 -4 39 -4q78 0 113 61q-66 68 -95 144 q-32 93 -32 136q0 34 18 60q10 12 23 12q8 0 16 -8l33 -51l22 -31q44 -47 105 -47q6 72 6 144q0 35 -1 69.5t-1 69.5q0 193 -51.5 285t-135.5 92q-35 0 -85 -22.5t-80.5 -88t-47.5 -201.5q-8 -57 -8 -176z" />
<glyph unicode="R" horiz-adv-x="1368" d="M119 657l2 121q0 70 2 121t4 100q0 295 27 396q20 80 77 80h736q35 0 71.5 -10.5t80.5 -37t77 -61.5q86 -90 86 -219q0 -31 -6 -68q-12 -80 -67.5 -154.5t-180.5 -168.5q-18 -16 -18 -25q0 -12 8 -26l100 -111q23 -25 51 -70q39 -57 74 -125q25 -45 37 -84 q59 -176 59 -252q0 -63 -32 -63h-377l-23 6q-12 8 -19 37t-44 184l-6 23q-53 156 -78 207t-51.5 70.5t-51.5 19.5q-27 0 -50 -14.5t-37.5 -45t-14.5 -81.5q0 -25 4 -54.5t6 -52.5l13 -80l2 -14q32 -139 32 -176q0 -29 -14 -29h-428q-20 0 -28.5 27.5t-8.5 115.5v9l-8 245z M528 895q0 -49 66 -49q23 0 41 8q35 14 59 33q78 51 114 102t36 103q0 25 -10 51q-18 43 -50 67.5t-67 24.5q-82 0 -120 -29.5t-48 -105.5l-17 -113z" />
<glyph unicode="S" horiz-adv-x="1251" d="M55 383q0 12 2 29.5t2 27.5q2 18 7.5 32.5t7.5 23.5q18 51 33.5 72.5t32 28.5t22.5 7q20 0 28.5 -13t10.5 -20q4 -8 16 -41l4 -16l8 -31l4 -18q2 -12 16.5 -29.5t55.5 -52.5q96 -84 207 -96q14 -2 27 -2h26q53 0 80 8q53 16 83 58t30 91q0 25 -6.5 47.5t-22.5 45.5 q-23 33 -59.5 55t-139.5 61l-47 19q-133 59 -184 91t-90 81q-51 63 -75.5 125.5t-24.5 126.5q0 14 2 31.5t2 27.5q20 141 125.5 229t316.5 121q25 4 55.5 6t59.5 2q90 0 170 -22q156 -47 217 -87t61 -95q0 -43 -39 -111q-59 -102 -98 -102q-16 0 -31.5 11t-40.5 36 q-41 45 -88 63q-78 31 -131 31q-57 0 -104 -29q-68 -41 -68 -112q0 -49 43 -90q33 -33 103 -64l81 -35l25 -10l78 -31l35 -12l51 -23q31 -14 54.5 -29.5t43.5 -33.5q158 -133 158 -305q0 -31 -5 -65t-9 -52q-16 -72 -46 -123t-91.5 -108.5t-139.5 -92.5q-57 -27 -118.5 -40 t-135.5 -13q-283 0 -436.5 116t-153.5 300z" />
<glyph unicode="T" horiz-adv-x="1148" d="M-14 1040q0 35 22 123l19 74l10 37q35 129 82 162.5t237 58.5q49 4 77 6t104 2h67h76q51 0 98 -4t88 -10q193 -33 251.5 -64.5t58.5 -111.5q0 -33 -11 -90l-20 -111q-8 -49 -15.5 -72.5t-17.5 -37t-35 -13.5q-20 0 -33 15q-29 35 -47 75q-10 23 -24.5 40.5t-46 48 t-68.5 30.5t-58.5 -27.5t-27.5 -66.5l-20 -109q-8 -78 -13.5 -168t-5.5 -174v-53l4 -88q0 -102 15 -188q6 -41 24 -107q41 -141 41 -184q0 -33 -26 -33h-400q-31 0 -51 51q-29 72 -29 219l-6 217l17 220q6 76 12 132t12 87q20 96 28 147q5 33 4 51q0 10 -1 15 q-4 20 -19.5 30.5t-35.5 4.5q-33 -8 -66 -29l-80 -51l-84 -58l-41 -35l-4 -4q-10 -10 -51 -18q-4 16 -8 33q-2 10 -2 28z" />
<glyph unicode="U" horiz-adv-x="1427" d="M102 778l4 131l5 49l10 86l10 91l4 43l8 51l13 82q18 109 33.5 136.5t58.5 27.5h330q25 0 24 -43q0 -53 -37 -179q-2 -6 -9 -37.5t-19 -105.5q-23 -158 -23 -279q0 -109 16 -200q43 -233 179 -234q33 0 69 13q57 20 85 64t46 149q4 29 5 124t4 168l-9 134q0 96 -12 170 q-14 61 -18 79q-29 106 -29 146q0 31 24 31h332q23 0 41.5 -18.5t35.5 -68t27.5 -138.5t10.5 -199v-126.5t2 -115.5v-43v-33q-4 -25 -4 -35q-12 -143 -29.5 -226t-42.5 -144q-72 -168 -182.5 -252t-288.5 -105q-31 -4 -74 -4h-57q-188 18 -317 129q-106 90 -162 228 q-61 154 -62 383z" />
<glyph unicode="V" horiz-adv-x="1349" d="M61 965q0 82 1 156.5t12 144.5l4 16l12 64l2 12l19 61q16 55 55 56h405q10 0 11 -21q0 -39 -54 -229q-34 -122 -34 -300v-10q0 -84 12 -161q20 -119 41.5 -181.5t58.5 -115.5q27 -39 70 -39q25 0 45 16.5t35.5 43t48.5 108.5q27 57 53 186q10 49 15.5 86t5.5 78 q0 244 -25 317l-61 181q-8 14 0 26q12 14 30 15h365q18 0 36.5 -33t41.5 -125q12 -49 17 -139.5t5 -223.5q0 -145 -42 -287.5t-120 -291.5q-49 -94 -93 -157.5t-91 -111.5q-157 -157 -269 -157h-1q-57 0 -123 38t-154 117q-31 31 -51 54q-43 51 -92 129q-82 129 -127 268 q-20 68 -32.5 131.5t-24.5 175.5z" />
<glyph unicode="W" horiz-adv-x="1767" d="M59 1049q0 121 17 294l2 19l4 37q6 39 18.5 57.5t30.5 18.5h354q14 0 15 -27q-4 -70 -8.5 -191.5t-4.5 -173.5q-2 -43 -2 -69q0 -20 2 -47t2 -43l3 -23l14 -137q10 -100 18 -131t39 -68q55 43 80 100.5t51 215.5q8 45 12.5 96t4.5 125q0 51 -3 96t-6 66q-12 109 -12 153 q0 57 23 58h366q39 0 39 -54q0 -33 -16 -135q-6 -31 -8 -83t-2 -169l8 -151l6 -70l2 -10l25 -141q2 -12 7 -31t15 -41q18 -27 47 -17q23 8 42.5 48.5t31.5 121.5l24 154v12l7 70q0 168 -13 266l-26 162q-4 39 12 57q8 10 18 11h334q49 0 62 -95l8 -88l2 -6l4 -94 q0 -78 -8 -162t-33 -203q-49 -238 -143 -434q-72 -154 -178 -305q-90 -129 -168 -129q-66 0 -127 96l-33 51l-27 44q-35 53 -48 84.5t-22.5 55t-21.5 44.5q-6 16 -33 16q-14 0 -32.5 -12t-51.5 -80l-41 -88l-18 -35q-37 -74 -53 -94q-66 -86 -123 -86q-55 0 -127 82l-27 31 l-51 63l-8 12q-41 53 -78 119q-72 129 -114 254t-62.5 249t-20.5 284z" />
<glyph unicode="X" horiz-adv-x="1280" d="M43 76q0 41 18 114l33 136l2 6l23 59q37 88 80 146.5t139 152.5q49 51 49 88q0 10 -8 39l-88 109q-18 25 -33.5 50t-38.5 66q-14 27 -29.5 65t-23.5 62l-33 136q-16 70 -16 102q0 68 69 68h371q4 -2 6 -5q12 -10 19 -22l8 -141l20 -111q12 -72 25.5 -101.5t34.5 -39.5 q6 -4 18 -4q31 0 43 28q4 12 6 38t2 38q-6 59 -6 107q0 109 33 165q27 47 63 48h345q14 0 20 -27t6 -102q-4 -29 -6 -58q-8 -39 -14 -75.5t-31 -104.5q-41 -102 -77 -158.5t-95 -113.5q-31 -29 -31 -60t41 -90l8 -8l56 -70q8 -10 26.5 -35.5t30.5 -46.5q43 -74 66 -145 l40 -156q23 -84 23 -141q0 -43 -13.5 -63.5t-31.5 -20.5h-404q-10 0 -16 10q-8 14 -14 47l-2 13l-17 118l-6 31q-18 104 -31.5 148.5t-34 77t-53.5 32.5q-18 0 -34 -16q-23 -25 -27 -47l-41 -115l-4 -10l-31 -129q-14 -102 -28.5 -131t-47.5 -29h-317q-41 0 -41 76z" />
<glyph unicode="Y" horiz-adv-x="1257" d="M6 1356q0 63 20.5 91t57.5 28h350q25 0 30 -25t5 -127v-47q0 -68 8 -115t25 -94q29 -82 53 -121q37 -59 78 -59q16 0 28.5 15.5t26.5 40t23 38.5l53 98l18 49q14 51 21.5 94.5t7.5 82.5q0 51 -2 71.5t-6 42.5q-4 23 8 39.5t31 16.5h321q39 0 58.5 -28t19.5 -93 q0 -41 -6 -86t-22.5 -109.5t-53.5 -130t-123 -188.5l-37 -52l-61 -81l-31 -48q-100 -150 -135 -235.5t-35 -198.5v-41v-84q0 -100 -35 -100h-360q-18 0 -30.5 14.5t-12.5 44.5v64q0 74 14.5 131t43 124.5t41 97.5t12.5 40q0 12 -7 31l-139 151l-49 64q-66 90 -113 182 q-39 78 -51 133q-45 188 -45 279z" />
<glyph unicode="Z" horiz-adv-x="1247" d="M41 80q0 55 31 176q10 43 22 72q20 39 29 57l20 43l33 61l43 84l12 23l134 205l28 41l39 59l47 72l19 31l67 98q10 16 10 37q0 39 -32.5 48t-50.5 9q-25 0 -93 -20l-37 -17l-94 -53q-8 -8 -24.5 11.5t-42.5 80.5l-15 43l-36 98l-27 76q-2 8 -2 21q0 39 37 39h913 q123 0 123 -68q0 -35 -23 -98q-12 -35 -69 -119q-63 -92 -283 -395l-110 -162q-59 -88 -81 -126t-33 -71t-15.5 -58.5t-4.5 -41.5q0 -37 27 -59.5t76 -22.5q16 0 45 4t88 27q61 27 94 53l90 68q20 0 52 -25l45 -111q75 -178 75 -232q0 -38 -37 -38h-1021q-68 0 -68 80z" />
<glyph unicode="[" horiz-adv-x="614" d="M51 55q2 57 5 157.5t3 182.5v905q0 76 -1 147t-3 134q0 23 13 33q20 16 77 16h312q35 0 60.5 -15.5t25.5 -43.5q0 -23 -114 -95.5t-114 -183.5l-2 -909q0 -164 117 -238t117 -94q0 -23 -25.5 -37t-48.5 -14h-344q-16 0 -47 17.5t-31 37.5z" />
<glyph unicode="\" horiz-adv-x="587" d="M8 1585q0 35 21 35q39 -14 57 -14q12 -27 26.5 -55.5t28.5 -73.5q43 -152 142 -504q4 -16 125 -461q67 -250 135 -498q-2 -14 -4 -16q-20 -4 -37 -4q-49 0 -68 24l-407 1463q-10 35 -14.5 62.5t-4.5 41.5z" />
<glyph unicode="]" horiz-adv-x="688" d="M63 51q0 18 117 92t117 240l-2 909q0 111 -113.5 183.5t-113.5 95.5q0 29 24.5 44t61.5 15h311q55 0 72.5 -14t17.5 -35q0 -35 -2 -126t-2 -155v-905q0 -145 2 -211t6 -129q0 -20 -30.5 -37.5t-47.5 -17.5h-344q-20 0 -47 13.5t-27 37.5z" />
<glyph unicode="^" horiz-adv-x="712" d="M45 1165q0 8 18 29q49 45 70 66q61 55 132 101t102 50q41 0 133 -74q53 -43 92 -77q29 -27 58.5 -53.5t29.5 -41.5q0 -12 -27 -12h-35q-25 0 -36 4q-14 4 -50 29q-49 35 -69 47q-51 33 -101 57q-49 -25 -94 -53.5t-74.5 -49t-48 -27.5t-39.5 -7h-34q-27 0 -27 12z" />
<glyph unicode="_" horiz-adv-x="1499" d="M12 -338q18 37 47 64q37 35 99 51l506 -2q162 0 387 1t366 17q10 2 31 2q35 0 35 -20q0 -3 -4 -15q-23 -47 -37 -61q-33 -33 -105 -43q-219 0 -431 -2t-510 -6t-335 -4q-16 0 -31.5 8t-17.5 10z" />
<glyph unicode="`" horiz-adv-x="565" d="M49 1686q0 10 17 16q31 12 122 12q68 0 125 -47q45 -43 72 -66.5t56.5 -50t29.5 -41.5q0 -12 -27 -12h-34q-25 0 -37 4q-14 4 -49 29q-131 61 -203 97t-72 59z" />
<glyph unicode="a" horiz-adv-x="1073" d="M59 338q0 47 9 86q18 96 102 178q92 88 242 139q61 18 80 21q39 8 43 8q10 2 18 6l14 29l17 37q2 8 -10.5 30.5t-26.5 42.5q-27 37 -94 37q-45 0 -101 -20q-45 -20 -74.5 -64.5t-52.5 -44.5t-79 46t-56 112q0 74 68 133q53 47 164 80q33 10 69.5 14t81.5 4 q492 0 492 -446l4 -82v-12v-152v-16l2 -144v-57v-100l-2 -162q-10 -41 -47 -41h-410h-49q-37 6 -57 8l-56 8q-98 20 -150.5 52t-96.5 100t-44 170zM457 387q0 -12 4 -41q10 -49 33.5 -72.5t54.5 -23.5q41 0 44 28.5t6 49t3 47.5v51q0 49 -10 71.5t-47 22.5q-14 0 -31.5 -9 t-37 -43t-19.5 -81z" />
<glyph unicode="b" horiz-adv-x="1148" d="M102 879q0 178 3.5 275t9.5 155l2 8l12 96q8 68 20.5 94.5t28.5 26.5h322q23 0 35 -16.5t12 -53.5q0 -29 -8.5 -68.5t-28.5 -95.5q-6 -14 -10 -45q0 -104 53 -104q29 0 70 14l41 13q4 2 63 2q51 0 70.5 -6.5t81 -39t117 -120.5t81.5 -221q14 -66 15 -150q0 -43 -6.5 -94 t-16.5 -98q-31 -135 -73 -213t-113 -136l-52 -34q-55 -33 -106 -50.5t-84 -17.5h-446q-43 0 -63.5 85t-20.5 355l-2 103q0 119 -2.5 192.5t-4.5 143.5zM492 719l4 -127l2 -27q0 -74 2 -99.5t11 -52t27.5 -39t45.5 -12.5q16 0 28 7q33 16 50.5 48t31.5 107q4 20 4 69.5v82.5 l-2 49l-16 98q-16 53 -30.5 77t-39.5 38q-12 6 -28 6q-31 0 -54.5 -19.5t-27.5 -46t-6 -51t-2 -53.5v-55z" />
<glyph unicode="c" horiz-adv-x="1013" d="M59 524q0 94 21.5 217t83.5 217q113 170 295 224q89 26 168 26h6q184 0 274 -118q43 -59 43 -119q0 -51 -29.5 -93.5t-82.5 -62.5l-43 -12q-12 23 -22.5 39t-29.5 35q-47 49 -104 49q-84 0 -145 -99q-27 -41 -38.5 -100t-11.5 -141q0 -141 60.5 -219t159.5 -78 q43 0 84 14q76 23 139 107l22 34q59 -20 60 -110q0 -37 -6 -86q-18 -127 -120 -205t-268 -78h-36q-27 4 -39 4q-129 12 -220.5 77t-160.5 192q-59 109 -60 286z" />
<glyph unicode="d" horiz-adv-x="1173" d="M61 485v113q0 115 27 197t86 168q84 123 171 176t220 53l70 -2l-2 43q0 57 -5 87t-17.5 80t-12.5 85q0 49 59 49h320q25 0 35 -49l12 -53q25 -164 35 -289t10 -348v-187q0 -143 -5 -240.5t-11 -166.5l-2 -25l-9 -72q-8 -61 -18 -82.5t-31 -21.5h-508q-184 0 -290 117 q-113 123 -134 368zM455 524.5q0 -30.5 9 -69.5t21.5 -62.5t36 -43t49.5 -19.5q51 0 74 47q8 16 14.5 33.5t6.5 38.5l10 100v22l6 115v8v21l-6 94l-6 96q0 16 -21.5 30.5t-46.5 14.5q-23 -4 -43 -18t-39.5 -48t-32 -71t-18.5 -72.5t-14 -117.5v-31v-67.5z" />
<glyph unicode="e" horiz-adv-x="1105" d="M57 541q0 274 100.5 436t286.5 217q80 25 160 25q195 0 307.5 -92.5t112.5 -229.5q0 -29 -2 -45t-12 -49l-17 -45q-37 -82 -106.5 -129t-265.5 -119l-48 -14q-8 -4 -16 -9q-8 -4 -31 -22l-22 -23q-20 -27 -21 -59q0 -57 56 -82q43 -18 141 -18q41 0 94 16q94 29 146.5 74 t72.5 112q53 -70 54 -151q0 -78 -54 -174q-39 -72 -120.5 -122t-200.5 -65q-43 -6 -88 -6q-27 0 -41 2q-193 0 -311.5 118t-161.5 347q-12 53 -13 107zM438 793q0 -57 38 -57q4 0 9 1q35 4 66 19q43 20 66.5 37.5t33.5 37.5q15 30 15 57v9q-4 29 -30 47q-19 13 -42 14 q-9 0 -19 -2q-47 -10 -85 -47t-48 -80q-4 -29 -4 -36z" />
<glyph unicode="f" horiz-adv-x="737" d="M8 1014q0 23 5.5 41t17.5 45q43 84 98 84q18 0 37 -6l24 22l31 121q51 203 266 233l23 5q147 0 197.5 -12.5t50.5 -45.5q0 -86 -10.5 -125t-24.5 -47l-59 -14q-84 -16 -84 -111l2 -26h30q141 0 142 -103q0 -31 -4 -47q-12 -59 -32 -72.5t-87 -13.5q-47 0 -63.5 -29.5 t-16.5 -121.5l-2 -109v-14l4 -123l4 -53l4 -66l10 -115q27 -168 27 -237q0 -43 -8 -58.5t-23 -15.5h-344q-23 0 -37 48t-14 179l-2 101l-2 63l-2 66v96v162l2 116l2 41q0 55 -14.5 65.5t-28.5 10.5t-55 -14q-18 -6 -41 18.5t-23 61.5z" />
<glyph unicode="g" horiz-adv-x="1124" d="M18 186q0 41 19 88q14 29 33.5 52.5t58.5 56.5l74 61l4 5q18 16 18 32q0 33 -88 160q-14 25 -23.5 56.5t-9.5 84.5q0 72 7.5 115t31.5 94q102 215 336 215q35 0 72 -6l45 -8q7 -1 15 -1q30 0 71 19q59 31 106 88q68 86 113 86q39 0 105 -75l22 -27l23 -29q23 -29 22 -51 q0 -20 -14.5 -26.5t-42.5 -10.5l-21 -4q-74 -20 -73 -84l28 -47q25 -49 37 -106.5t12 -110.5q0 -166 -85 -263t-246 -126l-52 -10q-86 -20 -121.5 -38t-64.5 -52q-16 -23 -16 -43q0 -29 20.5 -42.5t59.5 -13.5l24 2l12 2l95 27l51 14q61 14 99 18.5t83 4.5q106 0 171 -62.5 t65 -167.5q0 -57 -25 -124l-25 -54q-47 -84 -124.5 -138t-233.5 -107q-20 -6 -61 -17.5t-68 -15.5q-98 -18 -182 -19q-129 0 -213 39q-68 31 -103.5 82t-35.5 109q0 37 13 69.5t44 65.5l47 37l-31 26q-78 80 -78 170zM381 -117q0 -6 4 -26q8 -35 27.5 -50.5t60.5 -15.5 q25 0 80 10q98 23 131 76q25 35 25 57q1 5 1 9q0 27 -22 45q-24 20 -57 12l-64 -14l-82 -21l-14 -4q-90 -25 -90 -78zM453 834q2 -17 2 -27q6 -39 22 -68q29 -43 76 -43q33 0 55 21q41 37 41 133q0 53 -22.5 89t-63.5 36q-37 0 -67 -33q-43 -47 -43 -108z" />
<glyph unicode="h" horiz-adv-x="1185" d="M102 395v248l11 250q0 152 10 250q18 137 31 246l10 75q10 70 31 70h309q43 0 56 -7t13 -36v-21q-4 -16 -4 -26l-26 -90l-6 -21q-29 -127 -29 -151q0 -25 22 -25q14 0 40 4t48 13q41 16 71 27t73 11q27 0 57 -6q184 -33 240 -284q8 -39 15 -94.5t7 -135.5l2 -37v-26 l-2 -99q0 -78 -4 -129t-12 -127l-2 -8l-16 -114q-12 -88 -25.5 -120t-30.5 -32h-336q-31 0 -30 41q0 35 28 149q6 25 15.5 95.5t17.5 134.5l4 57l4 41l4 105v108.5t2 61.5q-4 37 -9 61.5t-15 44.5q-23 47 -68 47q-20 0 -41.5 -13t-39 -41t-17.5 -63l-12 -108v-19l-9 -122 l3 -105l2 -59l4 -45q0 -57 4 -104.5t13.5 -104t8.5 -92.5q0 -39 -8.5 -54.5t-30.5 -15.5h-342q-14 0 -23 42t-12.5 81t-4.5 122t-1 150z" />
<glyph unicode="i" horiz-adv-x="665" d="M104 502v293q0 244 13.5 314.5t52.5 70.5h301q41 0 41 -80q0 -29 -2 -45l-2 -15l-6 -77l-4 -56v-39q0 -68 2 -130t4 -122l6 -69l6 -62l8 -96l15 -125l4 -31q20 -141 20 -190q0 -43 -18 -43h-377q-25 0 -37 51q-18 72 -18 242l-7 174zM125 1430q0 70 50 113.5t140 43.5 q199 0 199 -184q0 -68 -74 -117q-25 -14 -41 -19t-34 -5q-115 0 -166.5 25.5t-67.5 96.5q-6 25 -6 46z" />
<glyph unicode="j" horiz-adv-x="608" d="M-72 -266q0 31 11 92l2 6l16 84q6 31 20 55q6 10 19 11q18 0 43 -25l29 -23q8 -3 14 -3q28 0 35 57l6 63v23v125l-2 508l-2 45l-2 96l-8 143q-12 84 -13 125q0 63 51 64h291q25 0 38 -35t13 -133l5 -80l2 -43l4 -483l6 -242v-31q0 -293 -92 -414q-83 -108 -272 -108h-3 q-123 0 -167 24.5t-44 98.5zM59 1464q0 70 46.5 116t123.5 46q94 0 143.5 -32.5t61.5 -108.5q2 -12 2 -39q0 -138 -166 -156q-12 -2 -32 -2q-154 0 -177 144q-2 10 -2 32z" />
<glyph unicode="k" horiz-adv-x="1138" d="M102 637v59v146q0 119 3.5 191.5t9.5 170.5l4 39l14 113q16 125 31.5 151.5t79.5 26.5h284q39 0 39 -47q0 -25 -4 -45q-10 -39 -16 -63.5t-11.5 -54.5t-9.5 -60l-6 -64l-6 -53l-2 -25l-8 -94q-6 -66 -6 -94q0 -41 28 -82q31 25 43.5 48.5t28.5 84.5l20 78 q18 76 28.5 96.5t25.5 20.5h321q35 0 35 -58q0 -51 -33 -155q-10 -27 -17 -43.5t-34 -63.5l-26 -47l-74 -111l-8 -28q0 -29 21.5 -56.5t107.5 -109.5q27 -23 52 -68t50 -121q33 -96 46 -154.5t13 -101.5q0 -35 -8 -49t-20 -14h-371q-23 0 -31 33l-20 147l-2 13l-29 129 q-16 74 -36.5 107.5t-41.5 37.5q-25 8 -34 -10.5t-9 -38.5q0 -18 4 -55t7 -74l12 -113v-14q14 -78 14 -117q0 -45 -26 -45h-371q-29 0 -41 101.5t-12 269.5q0 35 -4.5 138t-4.5 128z" />
<glyph unicode="l" horiz-adv-x="624" d="M104 672q0 207 3.5 386t25.5 326l2 13l10 59q8 47 22.5 62.5t49.5 15.5h299q33 0 33 -39q0 -29 -19 -113l-16 -122l-6 -68l-6 -57l-6 -74l-4 -55l-7 -218q0 -39 4.5 -130t4.5 -119l12 -170q39 -231 39 -303q0 -39 -7.5 -52.5t-23.5 -13.5h-346q-12 0 -23 10 q-27 31 -34 120t-7 542z" />
<glyph unicode="m" horiz-adv-x="1728" d="M100 616l4 172q0 248 17.5 320t60.5 72h324q12 0 24.5 -17.5t12.5 -48.5l-6 -31l28 25q115 84 211 84q74 0 162 -47l33 -21l73 35q115 43 209 43q170 0 268.5 -132t98.5 -384l4 -76l2 -47q0 -45 -3 -125t-3 -90l-4 -65l-2 -45l-2 -17l-13 -92q-8 -78 -19 -103.5 t-34 -25.5h-332q-29 0 -28 45q0 27 4 53.5t19.5 96t21.5 124t6 111.5l2 117q0 127 -6 191.5t-18.5 99t-31 53t-46.5 18.5q-33 0 -52.5 -25.5t-19.5 -68.5l2 -74v-288l-2 -97l-2 -45l-4 -41l-8 -98q-12 -115 -25.5 -143.5t-54.5 -28.5h-332q-14 0 -14 23l37 147q14 78 20 133 t6 117l4 57v8l-4 146l-2 51q0 88 -4 111.5t-18 50.5q-23 43 -66 43q-37 0 -68 -37q-20 -25 -30.5 -60.5t-10.5 -123.5l-4 -123q0 -109 2.5 -153t6.5 -75q32 -191 32 -242q0 -46 -15 -59.5t-58 -13.5h-289q-27 0 -35 41q-6 16 -11 86t-5 147q0 113 -5.5 199t-7.5 143z" />
<glyph unicode="n" horiz-adv-x="1206" d="M102 438v29l2 188l7 187v35l6 151q0 82 16.5 117t44.5 35h346q27 0 27 -54l-2 -16l45 31q109 61 207 61q115 0 189.5 -87t94.5 -251l17 -153v-43l2 -90v-82v-54l-6 -133l-13 -133q-10 -98 -27.5 -137t-39.5 -39h-344q-20 0 -21 41q0 35 29 184q10 57 17.5 128t7.5 128 l2 62v14v141q0 43 -4.5 82t-11.5 69t-28.5 48t-43.5 18q-6 0 -22.5 -5t-35.5 -19q-43 -39 -56 -76t-13 -147l-5 -168q0 -25 2.5 -55.5t9.5 -105.5t11 -120t9 -67.5t10.5 -59.5t5.5 -55q0 -37 -21 -37h-356q-23 0 -37 57.5t-14 221.5z" />
<glyph unicode="o" horiz-adv-x="1167" d="M59 565q0 301 131.5 473t358.5 172q272 0 413.5 -172t141.5 -510q0 -31 -3 -50t-24 -105q-53 -184 -135 -272.5t-223 -123.5q-27 -6 -55.5 -10t-61.5 -4q-55 0 -117 12q-188 35 -290 160t-129 365zM440 627l2 -52q0 -84 20.5 -139t55.5 -84.5t74 -29.5q72 0 104 79 q14 41 22.5 79t8.5 116v43v35q-4 27 -4 39q-10 90 -31 129q-37 78 -106 78q-43 0 -79 -34t-50.5 -78t-14.5 -149z" />
<glyph unicode="p" horiz-adv-x="1142" d="M98 588q0 371 16.5 481.5t61.5 110.5h553q37 0 75 -15.5t92 -59.5t108 -192q67 -185 67 -401v-6q0 -92 -33 -178q-23 -59 -71 -138q-70 -104 -144.5 -152t-156.5 -48q-27 0 -41 2l-35 8q-8 4 -15 4h-12q-27 0 -26 -43q0 -8 4 -49l6 -47l16 -96q14 -55 15 -88 q0 -49 -50 -50h-325q-35 0 -58 88q-32 129 -32 440v19q-6 139 -10.5 248t-4.5 162zM485 645l2 -334q0 -14 5 -24q4 -12 10 -25q13 -41 48 -41q7 0 15 2q31 8 53.5 40t47.5 108q12 41 17 66.5t5 72.5q0 254 -47 301q-29 29 -63 29q-35 0 -60 -29q-16 -23 -24.5 -57.5 t-8.5 -108.5z" />
<glyph unicode="q" horiz-adv-x="1161" d="M59 586q0 197 88 350q80 139 203 194q109 49 191 50h385q53 0 75.5 -33t22.5 -119l16 -209l17 -305v-49v-41v-35v-29v-26q0 -41 -1 -77t-1 -69v-28l-15 -213l-2 -31l-14 -164q0 -68 -15.5 -94.5t-47.5 -26.5h-330q-27 0 -27 41q0 14 2 39t8 56l7 34l14 70l10 68 q2 18 2 26q0 61 -51 62q-25 0 -66 -13l-36 -8q-35 -6 -68 -6q-166 0 -262 141q-104 154 -105 445zM449 528q0 -22 6 -71l6 -54q20 -121 80 -153q20 -10 39 -10q37 0 59 34q12 18 17.5 38t5.5 73q2 14 2 23q0 20 -3.5 109t-3.5 149l-6 88q-6 33 -29 51q-18 15 -43 15 q-6 0 -12 -1q-45 -6 -72.5 -53t-41.5 -154l-4 -39v-45z" />
<glyph unicode="r" horiz-adv-x="890" d="M104 952q0 145 4.5 175t22.5 44q12 8 25 9h307q10 -8 16 -17q8 -16 19 -57q2 -16 14 -23q12 -6 23 -2q16 10 33.5 27.5t54.5 62.5q12 16 29.5 25.5t39 12.5t37.5 3q74 0 129 -55q39 -35 55 -96q6 -29 7 -55q0 -94 -58.5 -146.5t-93.5 -52.5q-10 0 -18 8l-11 43 q-16 72 -73 72q-33 0 -70 -25q-55 -37 -70.5 -129t-15.5 -364l2 -23l53 -358q8 -31 -22 -31h-369q-10 0 -16 14.5t-13 69.5l-8 78l-2 12l-10 129l-4 66l-4 61l-6 133q0 127 -3.5 249t-3.5 140z" />
<glyph unicode="s" horiz-adv-x="1013" d="M66 350q0 61 14 94t51 62q25 -6 37 -18.5t33 -51.5l14 -24q41 -66 68.5 -85.5t101.5 -39.5q41 -10 76 -11q33 0 56.5 21.5t23.5 56.5q0 45 -29 80t-106 76l-117 61l-8 7q-47 23 -106.5 99.5t-59.5 184.5q0 45 12 92q35 121 119 185q93 69 244 69h4h67.5t74.5 -7 t101.5 -24.5t85.5 -39.5q100 -68 101 -121q0 -45 -70 -133q-6 -10 -19.5 -21.5t-21.5 -17.5q-41 -25 -57 -25q-18 0 -45 39l-21 25q-57 63 -125 63q-31 0 -57.5 -19.5t-26.5 -49.5q0 -16 12.5 -38t38 -41.5t107.5 -60.5l53 -26q137 -78 199.5 -159t62.5 -179q0 -45 -7 -81 t-17 -61.5t-29 -58.5q-55 -92 -121.5 -134t-189.5 -58q-51 -8 -111 -9q-178 0 -288.5 90.5t-122.5 235.5q0 14 -1 31.5t-1 21.5z" />
<glyph unicode="t" horiz-adv-x="710" d="M10 1079q10 72 34 87.5t114 15.5l16 -2l6 45q14 117 42 152.5t134 70.5l99 37q59 23 106 28q27 0 41 -11t10 -27l-20 -68q-16 -31 -23.5 -74t-7.5 -78t6 -69l49 -2q55 0 81 -13.5t30 -40.5l-12 -63q-18 -80 -23 -84q-2 -2 -70.5 -8t-80 -23.5t-11.5 -101.5v-86t2 -102 l9 -97q12 -98 25.5 -154.5t27.5 -91.5l57 -139q10 -16 -6 -37q-23 -29 -92 -71l-37 -21l-84 -43q-66 -33 -100 -33q-51 0 -84 65.5t-64 231.5q-10 55 -18 141.5t-8 202.5v156v65.5t2 65.5q0 20 -4 31q-2 8 -15.5 25.5t-36.5 17.5q-33 0 -79 -35l-13 100z" />
<glyph unicode="u" d="M102 682v45l7 145l16 144q10 90 28.5 127t36.5 37h334q18 0 20 -43q0 -14 -2.5 -40t-9.5 -59l-12 -71l-18 -127q-12 -102 -13 -187q0 -184 10.5 -229t14.5 -55q2 -8 15.5 -30t31 -28t31.5 -6q23 0 35 10q25 16 39 47t30 121l4 35q6 53 7 88q0 23 -1 48.5t-1 56.5v20 l-7 86l-2 21l-4 36l-8 68l-14 92l-2 13q-12 61 -13 90q0 43 27 43h340q16 0 27 -29t22 -121l12 -127l4 -127l3 -67l2 -62v-74v-57l-2 -70l-5 -81l-2 -46l-6 -102q0 -121 -17.5 -169t-41.5 -48h-275q-16 0 -32 25l-2 45l-11 53q-25 -27 -51 -47l-51 -31q-68 -39 -96.5 -49 t-73.5 -10q-139 0 -209 87t-100 316q-6 49 -9.5 83t-3.5 112z" />
<glyph unicode="v" horiz-adv-x="1083" d="M59 1090q0 51 8.5 70.5t22.5 19.5h354q14 0 18.5 -28t4.5 -120q0 -35 2 -91l4 -112l4 -43l2 -20l13 -102l22 -119q6 -31 27 -53q16 -25 41 -9q14 10 23 39t20 105l16 123l2 10l8 139l4 125v10q0 90 4.5 118t18.5 28h311q35 0 35 -58v-63l-2 -17l-21 -245l-16 -119 q-25 -145 -56.5 -241.5t-76.5 -170.5q-195 -311 -301 -311q-41 0 -83 27.5t-99 89.5q-90 92 -162 250.5t-107 363.5l-2 14l-24 201q-14 121 -15 189z" />
<glyph unicode="w" horiz-adv-x="1511" d="M59 920q0 160 8.5 210t32.5 50h328q18 0 22.5 -29t4.5 -133v-94.5t2 -102.5l2 -45l12 -119q8 -76 17.5 -101.5t27.5 -33.5q27 -14 35 10l22 109q20 106 24.5 140t4.5 114q0 41 1 82t1 49q-6 74 -6 107q0 31 6 38q6 8 27 9h301q12 0 14 -20.5t2 -53.5v-78l-2 -121l2 -119 l13 -114q8 -70 16 -94.5t27 -36.5q10 -6 18 -6q18 0 22 14q16 68 33 176l6 45q4 35 7.5 62.5t3.5 60.5v27v55l-2 63v17l-5 59l-2 23q0 41 29 41h287q25 0 38 -46.5t13 -107.5q0 -70 -14 -162l-37 -235l-2 -21q-23 -119 -57.5 -198.5t-143.5 -264.5q-41 -74 -102 -141 q-53 -59 -99 -59q-57 0 -118 114l-60 115l-45 123q-2 14 -16 14q-8 0 -15 -4q-6 -2 -16 -24.5t-43 -102.5l-72 -121q-37 -59 -59.5 -83.5t-48.5 -24.5q-23 0 -50.5 18.5t-72.5 59.5q-27 23 -66 71q-47 57 -90 134t-77.5 173.5t-57.5 200.5l-16 103v18z" />
<glyph unicode="x" horiz-adv-x="1101" d="M57 78q0 43 11.5 98t38 137t118.5 191q20 23 28.5 39t8.5 30q0 27 -4 33q-6 12 -72 94q-23 29 -43 82q-27 68 -43 138l-8 43q-16 96 -16 153q0 33 7 48.5t19 15.5h353q20 0 28.5 -19.5t8.5 -81.5v-30q0 -12 8 -70v-8l12 -66q4 -25 17.5 -39t33.5 -14q16 0 27 10 q18 18 24 41l19 72l2 12l12 76v10l6 68q6 39 35 39h313q20 0 21 -50q0 -43 -14 -126q-4 -31 -27 -95.5t-51.5 -111.5t-81.5 -107q-27 -27 -27 -57q0 -47 68 -107l41 -43q80 -90 110 -247q8 -35 12.5 -73t4.5 -65q0 -51 -11.5 -74.5t-23.5 -23.5h-344q-2 2 -4 2 q-14 10 -27 35q-4 6 -6 14q-8 39 -8 160l-27 92q-4 14 -11 30.5t-16.5 32t-33.5 15.5q-10 0 -24.5 -9.5t-24 -25.5t-23.5 -54t-29 -120l-4 -39l-8 -92v-10q-6 -31 -31 -31h-307q-14 0 -25.5 18.5t-11.5 59.5z" />
<glyph unicode="y" horiz-adv-x="1128" d="M29 -154q0 80 6 91q8 14 69 14h29h49q70 0 117 26q98 55 98 132q0 78 -104 206q-53 66 -85 126.5t-83 191.5q-23 55 -37 111.5t-22.5 118t-10.5 103.5t-2 83q0 37 2 45q10 53 18.5 69.5t20.5 16.5h324q25 0 35 -23.5t10 -91.5v-57l-2 -54v-47t10 -98l6 -45l15 -105 q12 -82 29.5 -118.5t45.5 -48.5q12 -4 23 -4q23 0 37 20l26 61l23 78l4 15l12 71q18 109 19 180v33q-4 20 -4 31l-15 153q0 23 11.5 36.5t29.5 13.5h322q14 0 22 -37t8 -84q0 -59 -6 -112.5t-10 -84.5l-37 -241l-2 -19q-25 -121 -72 -248l-49 -112q-74 -154 -149.5 -253.5 t-175.5 -174.5q-72 -55 -144.5 -96.5t-113.5 -51.5q-158 -43 -215 -43q-49 0 -64.5 29t-15.5 104q0 23 -1 45.5t-1 44.5z" />
<glyph unicode="z" horiz-adv-x="974" d="M45 66l2 59q14 104 48 201.5t100 214.5q55 96 94 155q33 51 63 84q72 78 91.5 104.5t21.5 43.5q0 18 -12.5 32.5t-30.5 10.5q-23 -2 -40 -7.5t-28 -7.5l-82 -26q-20 -8 -46.5 -17.5t-39.5 -9.5q-27 0 -40 31t-29 119q-4 23 -7.5 40t-3.5 37q0 49 39 50h717q66 0 66 -101 q0 -27 -6.5 -67.5t-8.5 -57.5q-8 -43 -36.5 -92t-96.5 -131l-41 -49q-47 -55 -64.5 -79.5t-58.5 -86.5l-71 -113q-23 -37 -39.5 -66.5t-20.5 -51.5q-6 -31 10.5 -52.5t43.5 -21.5q23 0 46 6t36 10l100 29q82 35 100 35q14 0 25 -10q4 -4 20 -35l25 -90q22 -79 22 -118 q0 -38 -30 -38h-809q-29 0 -29 66z" />
<glyph unicode="{" horiz-adv-x="614" d="M4 813q37 18 53 35q53 49 54 119v164.5t2 168.5q0 207 90 281q63 51 203 51q27 0 52 -1t52 -1q35 0 60.5 -15.5t25.5 -43.5q0 -23 -113.5 -95.5t-113.5 -183.5v-321q0 -57 -37 -115q-12 -18 -39 -49q25 -25 37 -41q37 -51 37 -102v-281q0 -164 116.5 -238t116.5 -94 q0 -23 -25.5 -37t-48.5 -14h-61.5t-58.5 -2q-188 0 -246 108q-47 88 -47 289v33v31v24q0 39 -1 78t-1 80v23q0 66 -54 114q-16 14 -53 35z" />
<glyph unicode="}" horiz-adv-x="651" d="M16 51q0 18 117 92t117 240v281q0 47 37 100q12 16 37 43q-25 29 -37 47q-39 61 -39 117v321q0 111 -114 183.5t-114 95.5q0 29 25 44t61 15h51.5t53.5 2q139 0 201 -49q92 -74 92 -283v-167.5t2 -165.5q0 -70 53 -119q16 -17 53 -35q-37 -20 -53 -35q-53 -47 -53 -114 v-33v-29v-27q0 -39 -1 -78.5t-1 -78.5v-23q0 -250 -84 -336q-59 -61 -207 -61q-37 0 -67.5 1t-55.5 1q-20 0 -47 13.5t-27 37.5z" />
<glyph unicode="~" horiz-adv-x="657" d="M41 1282q0 12 20 12h29q18 0 29 -4q12 -4 36.5 -26.5t49.5 -42.5q23 -14 43 -15q37 41 71.5 72t75.5 31q47 0 78 -29q37 -45 61.5 -72.5t48 -54.5t23.5 -41q0 -12 -20 -12h-29q-18 0 -29 4q-12 4 -39 29q-20 27 -32 38q-25 27 -58 27q-8 0 -57 -51t-94 -51q-49 0 -76 22 q-35 41 -59.5 67.5t-48 54.5t-23.5 42z" />
<glyph unicode="&#xa1;" horiz-adv-x="710" d="M76 72q0 6 4 26l51 127q14 35 26.5 82t28.5 129q4 14 8.5 52t8.5 61q8 100 8 168v39q-2 14 -2 20q-12 123 -12 174q0 47 9 62.5t34 15.5h206q10 0 19 -8q18 -18 43 -82q6 -14 15 -62.5t24 -123.5l31 -170q18 -121 18 -205q0 -205 -14.5 -281t-34.5 -76h-430q-41 0 -41 52 zM139 1380q0 82 60.5 144.5t146.5 62.5t147.5 -61.5t61.5 -147.5t-60.5 -146.5t-148.5 -60.5q-86 0 -146.5 62.5t-60.5 146.5z" />
<glyph unicode="&#xa2;" horiz-adv-x="937" d="M59 477q0 49 2 93t13.5 126t26 133.5t42.5 102.5q53 92 109.5 142t157.5 97l57 21q6 2 11 16.5t24 73.5q10 31 59 45q29 8 53.5 -6t24.5 -37v-51q-2 -6 2 -19q12 -27 44 -39t59.5 -22t46 -28.5t34 -52.5t15.5 -77q-2 -12 -2 -20q0 -43 -39 -98q-25 -33 -56 -33 q-20 0 -36 16l-29 43q-10 20 -23.5 30.5t-27.5 10.5q-20 0 -31 -20l-14 -125l-7 -66l-6 -61l-8 -125v-17v-108l2 -96q0 -41 20.5 -62.5t47.5 -15.5l61 24q25 14 47.5 32t26.5 22q18 27 39 57q12 18 12 23l8 4q20 -8 28.5 -32t8.5 -79l-2 -31q-18 -195 -149 -256l-66 -30 l12 -70q4 -20 5 -29q0 -23 -17.5 -32t-47.5 -11t-44 -4t-18 -2q-23 0 -31 14.5t-17.5 66.5t-30 62.5t-153.5 38.5q-31 6 -67 41q-50 45 -93 115q-37 57 -60.5 137t-23.5 168zM309 588q0 -16 2 -32.5t2 -25.5q20 -117 41 -162.5t72 -84.5q20 35 20 47l-10 112l-4 113l2 74 l2 39v22l4 90l9 152q-45 -25 -69 -64t-50 -141q-8 -27 -14.5 -71t-6.5 -68z" />
<glyph unicode="&#xa3;" horiz-adv-x="1566" d="M0 256q0 74 57.5 129t180.5 90q66 18 151 19q66 0 150 -13l34 -6l35 -6l45 -10l43 -13l37 -8q6 16 6 27q0 18 -28 74l-37 71l-123 6h-14h-109q-106 0 -125.5 -2t-64.5 -20q23 84 65 172q35 18 72 22l8 3h72l53 2l-39 51q-113 168 -113 295q0 158 181 288q96 72 194 96.5 t182 24.5q41 0 82 -6q135 -23 228 -92q143 -106 143 -233q0 -70 -43 -148q-35 -66 -87 -105.5t-125 -50t-120 -10.5q-80 0 -80 43q0 20 9 31q4 6 45 41q10 10 16 20q6 12 13 44t7 53q0 27 -10 51q-31 66 -84 65q-33 0 -67 -30q-63 -57 -64 -129q0 -90 103 -252l28 -43l160 4 l133 -4q23 0 52.5 16t47.5 37l-10 -59q-23 -88 -63 -162l-94 -11h-17l-82 3q-10 2 -43 -1.5t-53 -3.5l-8 -86l-6 -65l-2 -12l-15 -76q25 -14 69 -20.5t99 -6.5q90 0 150.5 40t117.5 132q39 61 72 62q23 0 45 -29q14 -18 23 -31q16 -27 33 -69q6 -20 14 -50t8 -67 q0 -119 -41 -194.5t-143 -127.5q-66 -35 -148 -34q-55 0 -121 18q-33 8 -68.5 26.5t-98.5 59.5l-80 51l-31 23l-43 -37q-182 -150 -350 -150q-49 0 -89 4.5t-81 18.5q-57 23 -107 53q-63 43 -96 87t-37 70.5t-4 49.5zM264 250q0 -66 80 -84q33 -4 47 -4t21 2l51 10l69 12 q51 10 73 19.5t40 25.5q8 8 8 19q0 12 -8 14l-27 12q-29 12 -53 21l-69 25l-23 6q-59 16 -92 16q-12 0 -33 -4q-66 -21 -80 -64q-4 -16 -4 -26z" />
<glyph unicode="&#xa5;" horiz-adv-x="1257" d="M6 1356q0 63 20.5 91t57.5 28h350q25 0 30 -25t5 -127v-47q0 -68 8 -115t25 -94q29 -82 53 -121q37 -59 78 -59q16 0 28.5 15.5t26.5 40t23 38.5l53 98l18 49q14 51 21.5 94.5t7.5 82.5q0 51 -2 71.5t-6 42.5q-4 23 8 39.5t31 16.5h321q39 0 58.5 -28t19.5 -93 q0 -41 -6 -86t-22.5 -109.5t-53.5 -130t-123 -188.5l-37 -52l-61 -81l-31 -48q-33 -51 -51 -79q-27 -43 -41 -72h139v-143h-196l-15 -82h211v-144h-219l2 -39q0 -100 -35 -100h-360q-18 0 -30.5 14.5t-12.5 44.5v64v16h-147v144h172q10 49 26 82h-198v143h258q2 8 -7 39 l-139 151l-49 64q-66 90 -113 182q-39 78 -51 133q-45 188 -45 279z" />
<glyph unicode="&#xa7;" horiz-adv-x="1013" d="M66 350q0 61 14 94t51 62q25 -6 37 -18.5t33 -51.5l14 -24q41 -66 68.5 -85.5t101.5 -39.5q41 -10 76 -11q33 0 56.5 21.5t23.5 56.5q0 45 -29 80t-106 76l-125 68q-47 23 -106.5 99.5t-59.5 184.5q0 45 12 92q31 111 109 172q-23 20 -29 27q-12 14 -33 41 q-61 80 -61 188q0 45 12 93q35 121 119 184q94 70 248 70h67.5t74.5 -7.5t101 -25t86 -39.5q100 -68 101 -121q0 -45 -70 -133q-6 -10 -19.5 -21.5t-21.5 -17.5q-41 -25 -57 -25q-18 0 -45 39l-21 25q-57 63 -125 63q-31 0 -57.5 -19.5t-26.5 -49.5q0 -16 12.5 -38t38 -41.5 t107.5 -60.5l53 -26q137 -78 199.5 -159t62.5 -179q0 -45 -7 -81t-17 -61.5t-29 -58.5q-2 -4 -20.5 -32.5t-36.5 -51.5q113 -100 112 -235q0 -45 -7 -81t-17 -61.5t-29 -58.5q-55 -92 -121.5 -134t-189.5 -58q-51 -8 -111 -9q-178 0 -288.5 90.5t-122.5 235.5q0 14 -1 31.5 t-1 21.5zM418 879q0 -45 32.5 -78t79.5 -33t80 30.5t33 80.5q0 47 -33 79.5t-80 32.5t-79.5 -32.5t-32.5 -79.5z" />
<glyph unicode="&#xa8;" horiz-adv-x="761" d="M82 1597q0 43 30.5 74t73.5 31t77 -29.5t34 -70.5q0 -43 -30.5 -74t-73.5 -31t-77 29.5t-34 70.5zM467 1597q0 43 30.5 74t73.5 31t77 -29.5t34 -70.5q0 -43 -30.5 -74t-73.5 -31t-77 29.5t-34 70.5z" />
<glyph unicode="&#xab;" horiz-adv-x="786" d="M35 788q0 45 65 136q49 70 131 157q33 37 70 76t53 39t17 -35v-47q0 -29 -7.5 -49.5t-35.5 -60.5q-41 -59 -62 -91q-45 -72 -73 -131q29 -61 71 -129q33 -51 62.5 -92t37 -60.5t7.5 -49.5v-48q0 -35 -17 -34q-18 0 -71 57q-27 29 -52 57q-72 78 -131 168q-66 98 -65 137z M393 788q0 45 66 136q49 70 131 157q33 37 69.5 76t53.5 39q16 0 16 -35v-47q0 -29 -7 -49.5t-36 -60.5q-41 -59 -61 -91q-45 -72 -74 -131q29 -61 72 -129q33 -51 62.5 -92t36.5 -60.5t7 -49.5v-48q0 -35 -16 -34q-18 0 -72 57q-27 29 -51 57q-72 78 -131 168 q-66 98 -66 137z" />
<glyph unicode="&#xad;" horiz-adv-x="796" d="M72 565q0 20 6 45l37 95q37 74 59.5 98t48.5 24h453q47 0 47 -75q0 -45 -28.5 -125t-48 -106.5t-48.5 -26.5q-8 0 -29 4h-444q-53 0 -53 67z" />
<glyph unicode="&#xaf;" horiz-adv-x="1083" d="M49 1518q18 57 48 95t91 66q72 0 145 -1t146 -1q135 0 255 4.5t231 16.5q25 4 45 4q51 0 43 -31q-25 -84 -60 -116.5t-94 -47.5q-72 0 -209 2t-205 2q-211 0 -403 -22q-12 2 -21 12q-6 8 -12 17z" />
<glyph unicode="&#xb4;" horiz-adv-x="565" d="M94 1501q0 8 19 29q49 45 69 65q78 72 88 78q48 33 107 33q74 0 106.5 -7t32.5 -22q0 -27 -164 -100q-90 -41 -114.5 -57.5t-43 -23.5t-38.5 -7h-35q-27 0 -27 12z" />
<glyph unicode="&#xb8;" horiz-adv-x="407" d="M80 -297q14 -2 45 -7t55 -5q43 0 71 18.5t28 65.5q0 111 -123 110l6 121l4 8q14 10 27 11q23 0 23.5 -36t2.5 -71q74 0 115 -49q35 -41 35 -96q0 -59 -42 -86t-102 -27q-39 0 -71.5 8t-55.5 21q-8 4 -14 8q-2 4 -4 6z" />
<glyph unicode="&#xbb;" horiz-adv-x="786" d="M41 395v47q0 31 6 47.5t35 57.5t63 96q47 76 74 131q-25 51 -74 129q-33 51 -59.5 90t-35.5 63.5t-9 49.5v47q0 35 16 35q18 0 72 -58q25 -29 51 -57q82 -88 131 -158q66 -90 66 -135q0 -37 -64.5 -134t-132.5 -171q-35 -37 -70.5 -76t-52.5 -39q-16 0 -16 35zM399 395 v47q0 31 6.5 47.5t35 57.5t63.5 96q47 76 74 131q-25 51 -74 129q-33 51 -59.5 90t-36 63.5t-9.5 49.5v47q0 35 17 35q18 0 71 -58q25 -29 52 -57q82 -88 131 -158q65 -90 65 -135q0 -37 -64.5 -134t-131.5 -171q-35 -37 -71 -76t-52 -39t-17 35z" />
<glyph unicode="&#xbf;" horiz-adv-x="946" d="M70 446q0 131 92 261q49 68 127 122t100.5 77.5t33.5 73.5t11 62q12 14 25 15h237q14 0 23.5 -18.5t9.5 -65.5l4 -64v-10q0 -94 -24.5 -134t-137 -136.5t-112.5 -204.5q0 -25 10 -59q27 -84 113 -84q31 0 56.5 13t40.5 26.5t38 37.5q14 16 47 -12q47 -39 100 -135 q10 -18 -7 -46t-73 -71q-27 -20 -76 -39.5t-106 -29.5q-16 -4 -49 -5.5t-53 -1.5q-203 0 -316.5 118t-113.5 310zM358 1403q0 82 60.5 144.5t146.5 62.5t147.5 -61.5t61.5 -147.5q0 -84 -61.5 -145.5t-147.5 -61.5t-146.5 62.5t-60.5 146.5z" />
<glyph unicode="&#xc0;" horiz-adv-x="1458" d="M88 387q0 49 6 114.5t15.5 128t17.5 97.5t12 51q27 100 52.5 169t56.5 126q82 154 184 260q43 47 96 86q172 133 232 133q53 0 186 -92l92 -76q154 -147 236 -383.5t82 -554.5l-4 -90q0 -201 -29 -293q-20 -63 -45 -63h-406q-25 0 -24 31q0 27 20 80q14 35 21.5 58.5 t15.5 59.5l8 35l19 90q6 25 10 46.5t4 48.5q4 39 -23.5 64.5t-76.5 25.5q-23 0 -54.5 -7.5t-70.5 -20.5t-62 -22q-76 -35 -106.5 -67.5t-30.5 -85.5q0 -51 39 -152l21 -41q31 -51 43 -77.5t10 -38.5q0 -27 -25 -27h-411q-14 0 -28.5 19.5t-35.5 74.5l-29 107q-18 78 -18 186 zM438 1849q0 10 17 17q31 12 123 12q68 0 124 -47q45 -43 72 -66.5t56.5 -50t29.5 -41.5q1 -12 -26 -12h-35q-25 0 -37 4q-14 4 -49 29q-131 61 -203 97t-72 58zM561 831q0 -12 6 -18t73 -9t138 -3h15q117 0 116 67q0 27 -18 74l-31 78l-4 10l-37 66q-25 47 -63 47 q-23 0 -45.5 -23.5t-55.5 -77.5l-51 -84l-26 -67q-16 -39 -17 -60z" />
<glyph unicode="&#xc1;" horiz-adv-x="1458" d="M88 387q0 49 6 114.5t15.5 128t17.5 97.5t12 51q27 100 52.5 169t56.5 126q82 154 184 260q43 47 96 86q172 133 232 133q53 0 186 -92l92 -76q154 -147 236 -383.5t82 -554.5l-4 -90q0 -201 -29 -293q-20 -63 -45 -63h-406q-25 0 -24 31q0 27 20 80q14 35 21.5 58.5 t15.5 59.5l8 35l19 90q6 25 10 46.5t4 48.5q4 39 -23.5 64.5t-76.5 25.5q-23 0 -54.5 -7.5t-70.5 -20.5t-62 -22q-76 -35 -106.5 -67.5t-30.5 -85.5q0 -51 39 -152l21 -41q31 -51 43 -77.5t10 -38.5q0 -27 -25 -27h-411q-14 0 -28.5 19.5t-35.5 74.5l-29 107q-18 78 -18 186 zM561 831q0 -12 6 -18t73 -9t138 -3h15q117 0 116 67q0 27 -18 74l-31 78l-4 10l-37 66q-25 47 -63 47q-23 0 -45.5 -23.5t-55.5 -77.5l-51 -84l-26 -67q-16 -39 -17 -60zM668 1665q0 8 18 29q49 45 70 65q78 72 88 78q47 33 106 33q74 0 107 -7.5t33 -21.5q0 -27 -164 -100 q-90 -41 -115 -57.5t-43 -23.5t-39 -7h-35q-27 0 -26 12z" />
<glyph unicode="&#xc2;" horiz-adv-x="1458" d="M88 387q0 49 6 114.5t15.5 128t17.5 97.5t12 51q27 100 52.5 169t56.5 126q82 154 184 260q43 47 96 86q172 133 232 133q53 0 186 -92l92 -76q154 -147 236 -383.5t82 -554.5l-4 -90q0 -201 -29 -293q-20 -63 -45 -63h-406q-25 0 -24 31q0 27 20 80q14 35 21.5 58.5 t15.5 59.5l8 35l19 90q6 25 10 46.5t4 48.5q4 39 -23.5 64.5t-76.5 25.5q-23 0 -54.5 -7.5t-70.5 -20.5t-62 -22q-76 -35 -106.5 -67.5t-30.5 -85.5q0 -51 39 -152l21 -41q31 -51 43 -77.5t10 -38.5q0 -27 -25 -27h-411q-14 0 -28.5 19.5t-35.5 74.5l-29 107q-18 78 -18 186 zM459 1665q0 8 18 29q49 45 70 65q61 55 132 101.5t101 50.5q41 0 133 -74q53 -43 93 -78q29 -27 58.5 -53.5t29.5 -40.5q0 -12 -27 -12h-35q-25 0 -37 4q-14 4 -49 29q-49 35 -69 47q-51 33 -101 57q-49 -25 -94 -53.5t-74.5 -49t-48 -27.5t-39.5 -7h-35q-27 0 -26 12z M561 831q0 -12 6 -18t73 -9t138 -3h15q117 0 116 67q0 27 -18 74l-31 78l-4 10l-37 66q-25 47 -63 47q-23 0 -45.5 -23.5t-55.5 -77.5l-51 -84l-26 -67q-16 -39 -17 -60z" />
<glyph unicode="&#xc3;" horiz-adv-x="1458" d="M88 387q0 49 6 114.5t15.5 128t17.5 97.5t12 51q27 100 52.5 169t56.5 126q82 154 184 260q43 47 96 86q172 133 232 133q53 0 186 -92l92 -76q154 -147 236 -383.5t82 -554.5l-4 -90q0 -201 -29 -293q-20 -63 -45 -63h-406q-25 0 -24 31q0 27 20 80q14 35 21.5 58.5 t15.5 59.5l8 35l19 90q6 25 10 46.5t4 48.5q4 39 -23.5 64.5t-76.5 25.5q-23 0 -54.5 -7.5t-70.5 -20.5t-62 -22q-76 -35 -106.5 -67.5t-30.5 -85.5q0 -51 39 -152l21 -41q31 -51 43 -77.5t10 -38.5q0 -27 -25 -27h-411q-14 0 -28.5 19.5t-35.5 74.5l-29 107q-18 78 -18 186 zM479 1651q0 16 33 53q18 20 38.5 44t45.5 52q35 37 90 37q35 0 73 -34t79 -68q31 0 55 24q16 20 35.5 40t36 27t30.5 7h29q20 0 20 -12q0 -16 -32 -54q-18 -20 -37 -41q-33 -37 -64 -73q-31 -29 -77 -29q-47 0 -94.5 51t-53.5 51q-25 0 -53 -22q-18 -16 -38 -33.5t-36 -25 t-31 -7.5h-28q-20 0 -21 13zM561 831q0 -12 6 -18t73 -9t138 -3h15q117 0 116 67q0 27 -18 74l-31 78l-4 10l-37 66q-25 47 -63 47q-23 0 -45.5 -23.5t-55.5 -77.5l-51 -84l-26 -67q-16 -39 -17 -60z" />
<glyph unicode="&#xc4;" horiz-adv-x="1458" d="M88 387q0 49 6 114.5t15.5 128t17.5 97.5t12 51q27 100 52.5 169t56.5 126q82 154 184 260q43 47 96 86q172 133 232 133q53 0 186 -92l92 -76q154 -147 236 -383.5t82 -554.5l-4 -90q0 -201 -29 -293q-20 -63 -45 -63h-406q-25 0 -24 31q0 27 20 80q14 35 21.5 58.5 t15.5 59.5l8 35l19 90q6 25 10 46.5t4 48.5q4 39 -23.5 64.5t-76.5 25.5q-23 0 -54.5 -7.5t-70.5 -20.5t-62 -22q-76 -35 -106.5 -67.5t-30.5 -85.5q0 -51 39 -152l21 -41q31 -51 43 -77.5t10 -38.5q0 -27 -25 -27h-411q-14 0 -28.5 19.5t-35.5 74.5l-29 107q-18 78 -18 186 zM471 1741q0 43 30.5 73.5t73.5 30.5t77 -29.5t34 -70.5q0 -43 -30.5 -74t-73.5 -31t-77 30t-34 71zM561 831q0 -12 6 -18t73 -9t138 -3h15q117 0 116 67q0 27 -18 74l-31 78l-4 10l-37 66q-25 47 -63 47q-23 0 -45.5 -23.5t-55.5 -77.5l-51 -84l-26 -67q-16 -39 -17 -60z M856 1741q0 43 31 73.5t74 30.5t76.5 -29.5t33.5 -70.5q0 -43 -30.5 -74t-73.5 -31t-77 30t-34 71z" />
<glyph unicode="&#xc5;" horiz-adv-x="1458" d="M88 387q0 49 6 114.5t15.5 128t17.5 97.5t12 51q27 100 52.5 169t56.5 126q82 154 184 260q43 47 96 86q172 133 232 133q53 0 186 -92l92 -76q154 -147 236 -383.5t82 -554.5l-4 -90q0 -201 -29 -293q-20 -63 -45 -63h-406q-25 0 -24 31q0 27 20 80q14 35 21.5 58.5 t15.5 59.5l8 35l19 90q6 25 10 46.5t4 48.5q4 39 -23.5 64.5t-76.5 25.5q-23 0 -54.5 -7.5t-70.5 -20.5t-62 -22q-76 -35 -106.5 -67.5t-30.5 -85.5q0 -51 39 -152l21 -41q31 -51 43 -77.5t10 -38.5q0 -27 -25 -27h-411q-14 0 -28.5 19.5t-35.5 74.5l-29 107q-18 78 -18 186 zM561 831q0 -12 6 -18t73 -9t138 -3h15q117 0 116 67q0 27 -18 74l-31 78l-4 10l-37 66q-25 47 -63 47q-23 0 -45.5 -23.5t-55.5 -77.5l-51 -84l-26 -67q-16 -39 -17 -60zM618 1776q0 53 39 90t93 37q55 0 96 -35t41 -88q0 -55 -39 -92t-92 -37q-57 0 -97.5 35.5t-40.5 89.5 zM668 1772q0 -31 26.5 -55.5t63.5 -24.5q31 0 56.5 25.5t25.5 58.5q0 31 -27 55t-61 24q-31 0 -57.5 -24.5t-26.5 -58.5z" />
<glyph unicode="&#xc6;" horiz-adv-x="2043" d="M88 387q0 49 6 114.5t15.5 128t17.5 97.5t12 51q27 100 52.5 169t56.5 126q82 154 184 260q43 47 96 86q172 133 232 133q53 0 186 -92l92 -76l11 -10q20 59 55 80t106 21h701q37 0 67.5 -10.5t22.5 -32.5q-14 -39 -37 -74l-37 -86q-16 -45 -18 -49q-12 -29 -29 -29 q-10 0 -33.5 9t-50.5 22q-59 20 -95 24t-42 4q-18 2 -39 0q-113 0 -174.5 -47t-85.5 -143q-6 -25 -6 -43q0 -51 61 -51q20 0 33 2l92 22q20 6 41 9.5t51 3.5l25 2q104 0 137 -11.5t33 -46.5q0 -14 -2 -22l-25 -56q-25 -59 -28 -71q-16 -43 -27.5 -84t-50.5 -41t-119 33 q-14 6 -25 4q-31 0 -57 -15q-8 -4 -61 -41q-33 -23 -52.5 -67.5t-19.5 -110.5q0 -100 63.5 -165.5t165.5 -65.5q20 0 50 3t70 14t65 24l86 51q8 8 24.5 -6.5t42.5 -71.5l6 -14l25 -62l35 -73q16 -33 21 -49.5t5 -26.5q0 -37 -32 -37h-1115q-25 0 -24 31q0 27 20 80 q14 35 21.5 58.5t15.5 59.5l8 35l19 90q6 25 10 46.5t4 48.5q4 39 -23.5 64.5t-76.5 25.5q-23 0 -54.5 -7.5t-70.5 -20.5t-62 -22q-76 -35 -106.5 -67.5t-30.5 -85.5q0 -51 39 -152l21 -41q31 -51 43 -77.5t10 -38.5q0 -27 -25 -27h-411q-14 0 -28.5 19.5t-35.5 74.5 l-29 107q-18 78 -18 186zM561 831q0 -12 6 -18t73 -9t138 -3h15q117 0 116 67q0 27 -18 74l-31 78l-4 10l-37 66q-25 47 -63 47q-23 0 -45.5 -23.5t-55.5 -77.5l-51 -84l-26 -67q-16 -39 -17 -60z" />
<glyph unicode="&#xc7;" horiz-adv-x="1275" d="M57 743q0 252 105 428q98 168 232 250t333 82h70.5t68.5 -6q106 -18 165 -50t91 -87q27 -45 27 -98q0 -70 -43 -127.5t-123 -83.5l-35 -9q-41 -6 -63 -6q-31 0 -38 16.5t-7 77.5q0 31 -28 50.5t-73 19.5q-35 0 -63 -10q-72 -20 -122 -100t-71 -224q-6 -47 -6 -92v-31 q0 -102 27.5 -178t75.5 -133q82 -94 192 -117q47 -10 82 -10q188 0 293 195l18 43q31 -23 48.5 -62t17.5 -94q0 -31 -6 -68q-18 -137 -119.5 -229t-274.5 -119q-49 -6 -100 -6v-47q74 0 115 -49q35 -41 35 -96q0 -59 -42 -86t-102 -27q-39 0 -71.5 8t-55.5 21q-8 4 -14 8 q-2 4 -4 6q14 -2 45 -7t55 -5q43 0 71 18.5t28 65.5q0 111 -123 110l4 82q-164 0 -266.5 54.5t-190.5 171.5l-37 55q-88 141 -110 340q-8 76 -9.5 106.5t-1.5 48.5z" />
<glyph unicode="&#xc8;" horiz-adv-x="1208" d="M119 379v37l2 188l4 107l4 82l4 69l8 117l17 151l28 146q23 125 58 162t127 37h700q37 0 67.5 -10.5t22.5 -32.5q-14 -39 -37 -74l-37 -86q-16 -45 -18 -49q-12 -29 -29 -29q-10 0 -33.5 9t-50.5 22q-59 20 -95 24t-42 4q-18 2 -39 0q-113 0 -174 -47t-86 -143 q-6 -25 -6 -43q0 -51 61 -51q20 0 33 2l92 22q20 6 41 9.5t52 3.5l24 2q104 0 137 -11.5t33 -46.5q0 -14 -2 -22l-24 -56q-25 -59 -29 -71q-16 -43 -27.5 -84t-50.5 -41t-119 33q-14 6 -24 4q-31 0 -58 -15q-8 -4 -61 -41q-33 -23 -52.5 -67.5t-19.5 -110.5 q0 -100 63.5 -165.5t166.5 -65.5q20 0 49.5 3t69.5 14t65 24l86 51q8 8 24.5 -6.5t42.5 -71.5l7 -14l24 -62l35 -73q16 -33 21.5 -49.5t5.5 -26.5q0 -37 -33 -37h-959q-29 0 -45 47t-16 176zM397 1808q0 10 17 17q31 12 123 12q68 0 125 -47q45 -43 71.5 -66.5t56 -50 t29.5 -41.5q1 -12 -26 -12h-35q-25 0 -37 4q-14 4 -49 29q-131 61 -203 97t-72 58z" />
<glyph unicode="&#xc9;" horiz-adv-x="1208" d="M119 379v37l2 188l4 107l4 82l4 69l8 117l17 151l28 146q23 125 58 162t127 37h700q37 0 67.5 -10.5t22.5 -32.5q-14 -39 -37 -74l-37 -86q-16 -45 -18 -49q-12 -29 -29 -29q-10 0 -33.5 9t-50.5 22q-59 20 -95 24t-42 4q-18 2 -39 0q-113 0 -174 -47t-86 -143 q-6 -25 -6 -43q0 -51 61 -51q20 0 33 2l92 22q20 6 41 9.5t52 3.5l24 2q104 0 137 -11.5t33 -46.5q0 -14 -2 -22l-24 -56q-25 -59 -29 -71q-16 -43 -27.5 -84t-50.5 -41t-119 33q-14 6 -24 4q-31 0 -58 -15q-8 -4 -61 -41q-33 -23 -52.5 -67.5t-19.5 -110.5 q0 -100 63.5 -165.5t166.5 -65.5q20 0 49.5 3t69.5 14t65 24l86 51q8 8 24.5 -6.5t42.5 -71.5l7 -14l24 -62l35 -73q16 -33 21.5 -49.5t5.5 -26.5q0 -37 -33 -37h-959q-29 0 -45 47t-16 176zM565 1604q0 8 19 28q49 45 69 66q78 72 88 78q48 32 107 32q74 0 106.5 -7 t32.5 -21q0 -27 -164 -101q-90 -41 -114.5 -57t-43 -23.5t-38.5 -7.5h-35q-27 0 -27 13z" />
<glyph unicode="&#xca;" horiz-adv-x="1208" d="M119 379v37l2 188l4 107l4 82l4 69l8 117l17 151l28 146q23 125 58 162t127 37h700q37 0 67.5 -10.5t22.5 -32.5q-14 -39 -37 -74l-37 -86q-16 -45 -18 -49q-12 -29 -29 -29q-10 0 -33.5 9t-50.5 22q-59 20 -95 24t-42 4q-18 2 -39 0q-113 0 -174 -47t-86 -143 q-6 -25 -6 -43q0 -51 61 -51q20 0 33 2l92 22q20 6 41 9.5t52 3.5l24 2q104 0 137 -11.5t33 -46.5q0 -14 -2 -22l-24 -56q-25 -59 -29 -71q-16 -43 -27.5 -84t-50.5 -41t-119 33q-14 6 -24 4q-31 0 -58 -15q-8 -4 -61 -41q-33 -23 -52.5 -67.5t-19.5 -110.5 q0 -100 63.5 -165.5t166.5 -65.5q20 0 49.5 3t69.5 14t65 24l86 51q8 8 24.5 -6.5t42.5 -71.5l7 -14l24 -62l35 -73q16 -33 21.5 -49.5t5.5 -26.5q0 -37 -33 -37h-959q-29 0 -45 47t-16 176zM356 1665q0 8 19 29q49 45 69 65q61 55 132 101.5t102 50.5q41 0 133 -74 q53 -43 92 -78q29 -27 58.5 -53.5t29.5 -40.5q1 -12 -26 -12h-35q-25 0 -37 4q-14 4 -49 29q-49 35 -70 47q-51 33 -100 57q-49 -25 -94 -53.5t-75 -49t-48.5 -27.5t-38.5 -7h-35q-27 0 -27 12z" />
<glyph unicode="&#xcb;" horiz-adv-x="1208" d="M119 379v37l2 188l4 107l4 82l4 69l8 117l17 151l28 146q23 125 58 162t127 37h700q37 0 67.5 -10.5t22.5 -32.5q-14 -39 -37 -74l-37 -86q-16 -45 -18 -49q-12 -29 -29 -29q-10 0 -33.5 9t-50.5 22q-59 20 -95 24t-42 4q-18 2 -39 0q-113 0 -174 -47t-86 -143 q-6 -25 -6 -43q0 -51 61 -51q20 0 33 2l92 22q20 6 41 9.5t52 3.5l24 2q104 0 137 -11.5t33 -46.5q0 -14 -2 -22l-24 -56q-25 -59 -29 -71q-16 -43 -27.5 -84t-50.5 -41t-119 33q-14 6 -24 4q-31 0 -58 -15q-8 -4 -61 -41q-33 -23 -52.5 -67.5t-19.5 -110.5 q0 -100 63.5 -165.5t166.5 -65.5q20 0 49.5 3t69.5 14t65 24l86 51q8 8 24.5 -6.5t42.5 -71.5l7 -14l24 -62l35 -73q16 -33 21.5 -49.5t5.5 -26.5q0 -37 -33 -37h-959q-29 0 -45 47t-16 176zM410 1741q0 43 30.5 73.5t73.5 30.5t77 -29.5t34 -70.5q0 -43 -31 -74t-74 -31 t-76.5 30t-33.5 71zM795 1741q0 43 30.5 73.5t73.5 30.5t77 -29.5t34 -70.5q0 -43 -31 -74t-74 -31t-76.5 30t-33.5 71z" />
<glyph unicode="&#xcc;" horiz-adv-x="718" d="M121 819l4 84l6 133q0 78 6 133q10 59 13 82l18 103q14 80 30.5 100.5t75.5 20.5h334q25 0 25 -43q0 -31 -22.5 -99.5t-37.5 -142.5q-20 -111 -20 -246q0 -72 -1 -140.5t-1 -131.5v-85t8 -110l29 -192l4 -33l8 -57l16 -93l11 -53l2 -14q6 -35 -13 -35h-421 q-12 0 -23.5 24.5t-24.5 90.5l-6 51l-12 182l-2 37q0 115 -3 273.5t-3 160.5zM131 1829q0 10 16 16q31 12 123 13q68 0 125 -48q45 -43 72 -66.5t56.5 -50t29.5 -40.5q0 -13 -27 -13h-34q-25 0 -37 5q-14 4 -49 28q-131 61 -203 97t-72 59z" />
<glyph unicode="&#xcd;" horiz-adv-x="718" d="M121 819l4 84l6 133q0 78 6 133q10 59 13 82l18 103q14 80 30.5 100.5t75.5 20.5h334q25 0 25 -43q0 -31 -22.5 -99.5t-37.5 -142.5q-20 -111 -20 -246q0 -72 -1 -140.5t-1 -131.5v-85t8 -110l29 -192l4 -33l8 -57l16 -93l11 -53l2 -14q6 -35 -13 -35h-421 q-12 0 -23.5 24.5t-24.5 90.5l-6 51l-12 182l-2 37q0 115 -3 273.5t-3 160.5zM381 1665q0 8 18 29q49 45 70 65q78 72 88 78q48 33 107 33q74 0 106.5 -7.5t32.5 -21.5q0 -27 -164 -100q-90 -41 -114.5 -57.5t-43 -23.5t-39.5 -7h-34q-27 0 -27 12z" />
<glyph unicode="&#xce;" horiz-adv-x="718" d="M90 1665q0 8 19 29q49 45 69 65q61 55 132 101.5t102 50.5q41 0 133 -74q53 -43 92 -78q29 -27 58.5 -53.5t29.5 -40.5q0 -12 -27 -12h-34q-25 0 -37 4q-14 4 -49 29q-49 35 -70 47q-51 33 -100 57q-49 -25 -94.5 -53.5t-75 -49t-48 -27.5t-38.5 -7h-35q-27 0 -27 12z M121 819l4 84l6 133q0 78 6 133q10 59 13 82l18 103q14 80 30.5 100.5t75.5 20.5h334q25 0 25 -43q0 -31 -22.5 -99.5t-37.5 -142.5q-20 -111 -20 -246q0 -72 -1 -140.5t-1 -131.5v-85t8 -110l29 -192l4 -33l8 -57l16 -93l11 -53l2 -14q6 -35 -13 -35h-421q-12 0 -23.5 24.5 t-24.5 90.5l-6 51l-12 182l-2 37q0 115 -3 273.5t-3 160.5z" />
<glyph unicode="&#xcf;" horiz-adv-x="718" d="M121 819l4 84l6 133q0 78 6 133q10 59 13 82l18 103q14 80 30.5 100.5t75.5 20.5h334q25 0 25 -43q0 -31 -22.5 -99.5t-37.5 -142.5q-20 -111 -20 -246q0 -72 -1 -140.5t-1 -131.5v-85t8 -110l29 -192l4 -33l8 -57l16 -93l11 -53l2 -14q6 -35 -13 -35h-421 q-12 0 -23.5 24.5t-24.5 90.5l-6 51l-12 182l-2 37q0 115 -3 273.5t-3 160.5zM123 1741q0 43 30.5 73.5t73.5 30.5t77 -29.5t34 -70.5q0 -43 -31 -74t-74 -31t-76.5 30t-33.5 71zM508 1741q0 43 30.5 73.5t73.5 30.5t77 -29.5t34 -70.5q0 -43 -30.5 -74t-74.5 -31 q-43 0 -76.5 30t-33.5 71z" />
<glyph unicode="&#xd0;" horiz-adv-x="1384" d="M-51 565q0 20 6 45l37 95q37 74 59.5 98t48.5 24h17l2 107l20 256q16 199 42 242t124 43h424q88 0 203 -64q61 -35 118.5 -97.5t118.5 -164.5l43 -78q55 -117 80 -258t25 -260q0 -188 -57.5 -313t-161.5 -185q-55 -29 -95 -42t-67 -13h-703q-20 0 -35.5 27.5t-34 104.5 t-27.5 167t-9 199h-125q-53 0 -53 67zM543 827h153q47 0 47 -75q0 -45 -28.5 -125t-48 -106.5t-48.5 -26.5q-8 0 -28 4h-25q8 -82 19.5 -123t27.5 -60q43 -49 99 -49q68 0 112 76q29 45 56 139q16 57 16 150q0 45 -6 104l-10 66q-14 94 -50 178q-25 70 -49 108 q-31 49 -48 70t-38.5 32t-46.5 11q-53 0 -76 -49q-12 -25 -17 -57.5t-5 -98.5z" />
<glyph unicode="&#xd1;" horiz-adv-x="1472" d="M121 518v316q0 119 10 243.5t10 145.5l2 8l15 102q10 82 44 112t113 30h195q27 0 56.5 -15.5t70.5 -56.5q25 -25 66.5 -85.5t69.5 -103.5t56.5 -92t59.5 -108q20 -41 38.5 -79t39.5 -89q12 72 12 133q0 51 -10 139l-8 66l-7 49l-18 113q-16 72 -16 102q0 27 14 27h338 q16 0 26.5 -30t16.5 -60.5t13 -101.5t10 -97.5t9.5 -133t6.5 -221.5v-247l-2 -37l-9 -211q0 -193 -23.5 -264.5t-59.5 -71.5h-345q-14 0 -24 15.5t-27 64.5l-10 29l-37 124q-29 104 -82 238l-53 129q-59 129 -92 182.5t-82 96.5v-95q0 -203 8 -292q0 -4 21 -156l18 -141 l2 -15q10 -45 14 -82t4 -55q0 -43 -20 -43h-348q-41 0 -57 45q-8 31 -13.5 88t-5.5 150zM479 1651q0 16 33 53q18 20 38.5 44t45.5 52q35 37 90 37q35 0 73 -34t79 -68q31 0 55 24q16 20 35.5 40t36 27t30.5 7h29q20 0 20 -12q0 -16 -32 -54q-18 -20 -37 -41 q-33 -37 -64 -73q-31 -29 -77 -29q-47 0 -94.5 51t-53.5 51q-25 0 -53 -22q-18 -16 -38 -33.5t-36 -25t-31 -7.5h-28q-20 0 -21 13z" />
<glyph unicode="&#xd2;" horiz-adv-x="1425" d="M59 565q0 156 47 314q33 109 76 200q37 82 80 144q66 92 133.5 152.5t132.5 88.5q100 45 189 45q80 0 162 -34.5t170 -110.5q100 -88 184 -244q23 -39 43 -96t39 -131q51 -205 51 -367q0 -238 -107.5 -367.5t-302.5 -154.5l-71 -4h-471q-135 0 -228 115 q-100 125 -123 354q-2 33 -3 57.5t-1 38.5zM356 1808q0 10 17 17q31 12 123 12q68 0 125 -47q45 -43 71.5 -66.5t56 -50t29.5 -41.5q1 -12 -26 -12h-35q-25 0 -37 4q-14 4 -49 29q-131 61 -203 97t-72 58zM479 578q0 -133 53.5 -188.5t172.5 -55.5q115 0 161.5 37t71.5 147 q8 27 8 72q0 76 -35 235q-8 31 -13 54.5t-21 66.5q-29 78 -39.5 100.5t-42.5 77.5q-35 49 -78 50q-47 0 -82 -49.5t-53.5 -88.5t-47 -124t-42 -168.5t-13.5 -165.5z" />
<glyph unicode="&#xd3;" horiz-adv-x="1425" d="M59 565q0 156 47 314q33 109 76 200q37 82 80 144q66 92 133.5 152.5t132.5 88.5q100 45 189 45q80 0 162 -34.5t170 -110.5q100 -88 184 -244q23 -39 43 -96t39 -131q51 -205 51 -367q0 -238 -107.5 -367.5t-302.5 -154.5l-71 -4h-471q-135 0 -228 115 q-100 125 -123 354q-2 33 -3 57.5t-1 38.5zM479 578q0 -133 53.5 -188.5t172.5 -55.5q115 0 161.5 37t71.5 147q8 27 8 72q0 76 -35 235q-8 31 -13 54.5t-21 66.5q-29 78 -39.5 100.5t-42.5 77.5q-35 49 -78 50q-47 0 -82 -49.5t-53.5 -88.5t-47 -124t-42 -168.5 t-13.5 -165.5zM688 1665q0 8 19 29q49 45 69 65q78 72 88 78q48 33 107 33q74 0 106.5 -7.5t32.5 -21.5q0 -27 -164 -100q-90 -41 -114.5 -57.5t-43 -23.5t-38.5 -7h-35q-27 0 -27 12z" />
<glyph unicode="&#xd4;" horiz-adv-x="1425" d="M59 565q0 156 47 314q33 109 76 200q37 82 80 144q66 92 133.5 152.5t132.5 88.5q100 45 189 45q80 0 162 -34.5t170 -110.5q100 -88 184 -244q23 -39 43 -96t39 -131q51 -205 51 -367q0 -238 -107.5 -367.5t-302.5 -154.5l-71 -4h-471q-135 0 -228 115 q-100 125 -123 354q-2 33 -3 57.5t-1 38.5zM397 1665q0 8 19 29q49 45 69 65q61 55 132 101.5t102 50.5q41 0 133 -74q53 -43 92 -78q29 -27 58.5 -53.5t29.5 -40.5q1 -12 -26 -12h-35q-25 0 -37 4q-14 4 -49 29q-49 35 -70 47q-51 33 -100 57q-49 -25 -94.5 -53.5t-75 -49 t-48 -27.5t-38.5 -7h-35q-27 0 -27 12zM479 578q0 -133 53.5 -188.5t172.5 -55.5q115 0 161.5 37t71.5 147q8 27 8 72q0 76 -35 235q-8 31 -13 54.5t-21 66.5q-29 78 -39.5 100.5t-42.5 77.5q-35 49 -78 50q-47 0 -82 -49.5t-53.5 -88.5t-47 -124t-42 -168.5t-13.5 -165.5z " />
<glyph unicode="&#xd5;" horiz-adv-x="1425" d="M59 565q0 156 47 314q33 109 76 200q37 82 80 144q66 92 133.5 152.5t132.5 88.5q100 45 189 45q80 0 162 -34.5t170 -110.5q100 -88 184 -244q23 -39 43 -96t39 -131q51 -205 51 -367q0 -238 -107.5 -367.5t-302.5 -154.5l-71 -4h-471q-135 0 -228 115 q-100 125 -123 354q-2 33 -3 57.5t-1 38.5zM479 578q0 -133 53.5 -188.5t172.5 -55.5q115 0 161.5 37t71.5 147q8 27 8 72q0 76 -35 235q-8 31 -13 54.5t-21 66.5q-29 78 -39.5 100.5t-42.5 77.5q-35 49 -78 50q-47 0 -82 -49.5t-53.5 -88.5t-47 -124t-42 -168.5 t-13.5 -165.5zM479 1651q0 16 33 53q18 20 38.5 44t45.5 52q35 37 90 37q35 0 73 -34t79 -68q31 0 55 24q16 20 35.5 40t36 27t30.5 7h29q20 0 20 -12q0 -16 -32 -54q-18 -20 -37 -41q-33 -37 -64 -73q-31 -29 -77 -29q-47 0 -94.5 51t-53.5 51q-25 0 -53 -22 q-18 -16 -38 -33.5t-36 -25t-31 -7.5h-28q-20 0 -21 13z" />
<glyph unicode="&#xd6;" horiz-adv-x="1425" d="M59 565q0 156 47 314q33 109 76 200q37 82 80 144q66 92 133.5 152.5t132.5 88.5q100 45 189 45q80 0 162 -34.5t170 -110.5q100 -88 184 -244q23 -39 43 -96t39 -131q51 -205 51 -367q0 -238 -107.5 -367.5t-302.5 -154.5l-71 -4h-471q-135 0 -228 115 q-100 125 -123 354q-2 33 -3 57.5t-1 38.5zM430 1741q0 43 31 73.5t74 30.5t76.5 -29.5t33.5 -70.5q0 -43 -30.5 -74t-73.5 -31t-77 30t-34 71zM479 578q0 -133 53.5 -188.5t172.5 -55.5q115 0 161.5 37t71.5 147q8 27 8 72q0 76 -35 235q-8 31 -13 54.5t-21 66.5 q-29 78 -39.5 100.5t-42.5 77.5q-35 49 -78 50q-47 0 -82 -49.5t-53.5 -88.5t-47 -124t-42 -168.5t-13.5 -165.5zM815 1741q0 43 31 73.5t74 30.5t76.5 -29.5t33.5 -70.5q0 -43 -30.5 -74t-73.5 -31t-77 30t-34 71z" />
<glyph unicode="&#xd7;" horiz-adv-x="0" />
<glyph unicode="&#xd8;" horiz-adv-x="1425" d="M59 565q0 156 47 314q33 109 76 200q37 82 80 144q66 92 133.5 152.5t132.5 88.5q100 45 191 45q80 0 154.5 -30.5t158.5 -102.5l25 37q25 39 48 71t42 58q8 0 32.5 4t26.5 4q23 0 23 -18q0 -14 -13.5 -43t-41.5 -72l-70 -108q37 -41 65.5 -82t63.5 -107q23 -39 43 -96 t39 -131q51 -205 51 -367q0 -238 -107.5 -367.5t-302.5 -154.5l-71 -4h-471q-68 0 -133 35l-52 -80q-25 -25 -73 -25q-14 0 -35 4q-2 2 0 17l88 139q-57 61 -95 154.5t-51 224.5q-2 33 -3 57.5t-1 38.5zM479 578l4 -54l346 539l-34 61q-35 49 -78 50q-47 0 -82 -49.5 t-53.5 -88.5t-47 -124t-42 -169t-13.5 -165zM522 406q25 -39 71 -55.5t112 -16.5q115 0 161.5 37t71.5 147q8 27 8 72q0 76 -35 235q-8 31 -13 54.5t-21 66.5l-3 8z" />
<glyph unicode="&#xd9;" horiz-adv-x="1427" d="M102 778l4 131l5 49l10 86l10 91l4 43l8 51l13 82q18 109 33.5 136.5t58.5 27.5h330q25 0 24 -43q0 -53 -37 -179q-2 -6 -9 -37.5t-19 -105.5q-23 -158 -23 -279q0 -109 16 -200q43 -233 179 -234q33 0 69 13q57 20 85 64t46 149q4 29 5 124t4 168l-9 134q0 96 -12 170 q-14 61 -18 79q-29 106 -29 146q0 31 24 31h332q23 0 41.5 -18.5t35.5 -68t27.5 -138.5t10.5 -199v-126.5t2 -115.5v-43v-33q-4 -25 -4 -35q-12 -143 -29.5 -226t-42.5 -144q-72 -168 -182.5 -252t-288.5 -105q-31 -4 -74 -4h-57q-188 18 -317 129q-106 90 -162 228 q-61 154 -62 383zM356 1829q0 10 17 16q31 12 123 13q68 0 125 -48q45 -43 71.5 -66.5t56 -50t29.5 -40.5q1 -13 -26 -13h-35q-25 0 -37 5q-14 4 -49 28q-131 61 -203 97t-72 59z" />
<glyph unicode="&#xda;" horiz-adv-x="1427" d="M102 778l4 131l5 49l10 86l10 91l4 43l8 51l13 82q18 109 33.5 136.5t58.5 27.5h330q25 0 24 -43q0 -53 -37 -179q-2 -6 -9 -37.5t-19 -105.5q-23 -158 -23 -279q0 -109 16 -200q43 -233 179 -234q33 0 69 13q57 20 85 64t46 149q4 29 5 124t4 168l-9 134q0 96 -12 170 q-14 61 -18 79q-29 106 -29 146q0 31 24 31h332q23 0 41.5 -18.5t35.5 -68t27.5 -138.5t10.5 -199v-126.5t2 -115.5v-43v-33q-4 -25 -4 -35q-12 -143 -29.5 -226t-42.5 -144q-72 -168 -182.5 -252t-288.5 -105q-31 -4 -74 -4h-57q-188 18 -317 129q-106 90 -162 228 q-61 154 -62 383zM627 1645q0 8 18 28q49 45 70 66q78 72 88 78q47 32 106 32q74 0 107 -7t33 -21q0 -27 -164 -101q-90 -41 -115 -57t-43 -23.5t-39 -7.5h-35q-27 0 -26 13z" />
<glyph unicode="&#xdb;" horiz-adv-x="1427" d="M102 778l4 131l5 49l10 86l10 91l4 43l8 51l13 82q18 109 33.5 136.5t58.5 27.5h330q25 0 24 -43q0 -53 -37 -179q-2 -6 -9 -37.5t-19 -105.5q-23 -158 -23 -279q0 -109 16 -200q43 -233 179 -234q33 0 69 13q57 20 85 64t46 149q4 29 5 124t4 168l-9 134q0 96 -12 170 q-14 61 -18 79q-29 106 -29 146q0 31 24 31h332q23 0 41.5 -18.5t35.5 -68t27.5 -138.5t10.5 -199v-126.5t2 -115.5v-43v-33q-4 -25 -4 -35q-12 -143 -29.5 -226t-42.5 -144q-72 -168 -182.5 -252t-288.5 -105q-31 -4 -74 -4h-57q-188 18 -317 129q-106 90 -162 228 q-61 154 -62 383zM397 1665q0 8 19 29q49 45 69 65q61 55 132 101.5t102 50.5q41 0 133 -74q53 -43 92 -78q29 -27 58.5 -53.5t29.5 -40.5q1 -12 -26 -12h-35q-25 0 -37 4q-14 4 -49 29q-49 35 -70 47q-51 33 -100 57q-49 -25 -94.5 -53.5t-75 -49t-48 -27.5t-38.5 -7h-35 q-27 0 -27 12z" />
<glyph unicode="&#xdc;" horiz-adv-x="1427" d="M102 778l4 131l5 49l10 86l10 91l4 43l8 51l13 82q18 109 33.5 136.5t58.5 27.5h330q25 0 24 -43q0 -53 -37 -179q-2 -6 -9 -37.5t-19 -105.5q-23 -158 -23 -279q0 -109 16 -200q43 -233 179 -234q33 0 69 13q57 20 85 64t46 149q4 29 5 124t4 168l-9 134q0 96 -12 170 q-14 61 -18 79q-29 106 -29 146q0 31 24 31h332q23 0 41.5 -18.5t35.5 -68t27.5 -138.5t10.5 -199v-126.5t2 -115.5v-43v-33q-4 -25 -4 -35q-12 -143 -29.5 -226t-42.5 -144q-72 -168 -182.5 -252t-288.5 -105q-31 -4 -74 -4h-57q-188 18 -317 129q-106 90 -162 228 q-61 154 -62 383zM430 1741q0 43 31 73.5t74 30.5t76.5 -29.5t33.5 -70.5q0 -43 -30.5 -74t-73.5 -31t-77 30t-34 71zM815 1741q0 43 31 73.5t74 30.5t76.5 -29.5t33.5 -70.5q0 -43 -30.5 -74t-73.5 -31t-77 30t-34 71z" />
<glyph unicode="&#xdd;" horiz-adv-x="1257" d="M6 1356q0 63 20.5 91t57.5 28h350q25 0 30 -25t5 -127v-47q0 -68 8 -115t25 -94q29 -82 53 -121q37 -59 78 -59q16 0 28.5 15.5t26.5 40t23 38.5l53 98l18 49q14 51 21.5 94.5t7.5 82.5q0 51 -2 71.5t-6 42.5q-4 23 8 39.5t31 16.5h321q39 0 58.5 -28t19.5 -93 q0 -41 -6 -86t-22.5 -109.5t-53.5 -130t-123 -188.5l-37 -52l-61 -81l-31 -48q-100 -150 -135 -235.5t-35 -198.5v-41v-84q0 -100 -35 -100h-360q-18 0 -30.5 14.5t-12.5 44.5v64q0 74 14.5 131t43 124.5t41 97.5t12.5 40q0 12 -7 31l-139 151l-49 64q-66 90 -113 182 q-39 78 -51 133q-45 188 -45 279zM565 1604q0 8 19 28q49 45 69 66q78 72 88 78q48 32 107 32q74 0 106.5 -7t32.5 -21q0 -27 -164 -101q-90 -41 -114.5 -57t-43 -23.5t-38.5 -7.5h-35q-27 0 -27 13z" />
<glyph unicode="&#xdf;" horiz-adv-x="1368" d="M119 805q0 180 6 294.5t14 170.5q23 133 60 169t157 36h594q104 0 166 -25q180 -74 180 -221q0 -104 -63 -215q-80 -137 -223 -197q-14 -6 -15 -14q72 -51 144 -107q80 -63 116 -137q25 -49 36.5 -96t11.5 -92q0 -35 -3.5 -53.5t-13.5 -59.5q-33 -123 -110.5 -180.5 t-243.5 -73.5q-6 0 -41 -6t-53 -6t-27 2q-59 14 -105.5 81.5t-46.5 133.5q0 29 13 47q6 8 18 8q23 -2 47 -4q121 31 121 182q0 78 -113 152q-36 24 -112 57q-31 39 -31 86q0 45 29 97q16 31 51 71q8 10 68 64q33 29 55 55q14 14 34.5 45t30 48.5t9.5 43.5q0 37 -21.5 62.5 t-54.5 25.5q-78 0 -152 -39q-92 -49 -114 -135q-12 -49 -17.5 -123.5t-5.5 -177.5q0 -111 3 -191.5t7 -138.5q0 -84 25 -223q53 -301 53 -334q0 -53 -16 -71q-6 -8 -36 -12.5t-71 -4.5q-66 0 -130 5.5t-118 11.5q-31 0 -47 71q-20 160 -28 250q-31 283 -31 371 q0 94 -2 163.5t-4 133.5z" />
<glyph unicode="&#xe0;" horiz-adv-x="1073" d="M59 338q0 47 9 86q18 96 102 178q92 88 242 139q61 18 80 21q39 8 43 8q10 2 18 6l14 29l17 37q2 8 -10.5 30.5t-26.5 42.5q-27 37 -94 37q-45 0 -101 -20q-45 -20 -74.5 -64.5t-52.5 -44.5t-79 46t-56 112q0 74 68 133q53 47 164 80q33 10 69.5 14t81.5 4 q492 0 492 -446l4 -82v-12v-152v-16l2 -144v-57v-100l-2 -162q-10 -41 -47 -41h-410h-49q-37 6 -57 8l-56 8q-98 20 -150.5 52t-96.5 100t-44 170zM131 1604q0 10 16 16q31 12 123 12q68 0 125 -47q45 -43 72 -66.5t56.5 -50t29.5 -41.5q0 -12 -27 -12h-34q-25 0 -37 4 q-14 4 -49 29q-131 61 -203 97t-72 59zM457 387q0 -12 4 -41q10 -49 33.5 -72.5t54.5 -23.5q41 0 44 28.5t6 49t3 47.5v51q0 49 -10 71.5t-47 22.5q-14 0 -31.5 -9t-37 -43t-19.5 -81z" />
<glyph unicode="&#xe1;" horiz-adv-x="1073" d="M59 338q0 47 9 86q18 96 102 178q92 88 242 139q61 18 80 21q39 8 43 8q10 2 18 6l14 29l17 37q2 8 -10.5 30.5t-26.5 42.5q-27 37 -94 37q-45 0 -101 -20q-45 -20 -74.5 -64.5t-52.5 -44.5t-79 46t-56 112q0 74 68 133q53 47 164 80q33 10 69.5 14t81.5 4 q492 0 492 -446l4 -82v-12v-152v-16l2 -144v-57v-100l-2 -162q-10 -41 -47 -41h-410h-49q-37 6 -57 8l-56 8q-98 20 -150.5 52t-96.5 100t-44 170zM401 1481q0 8 19 28q49 45 69 66q78 72 89 78q47 33 106 33q74 0 106.5 -7.5t32.5 -21.5q0 -27 -164 -101 q-90 -41 -114.5 -57t-43 -23.5t-38.5 -7.5h-35q-27 0 -27 13zM457 387q0 -12 4 -41q10 -49 33.5 -72.5t54.5 -23.5q41 0 44 28.5t6 49t3 47.5v51q0 49 -10 71.5t-47 22.5q-14 0 -31.5 -9t-37 -43t-19.5 -81z" />
<glyph unicode="&#xe2;" horiz-adv-x="1073" d="M59 338q0 47 9 86q18 96 102 178q92 88 242 139q61 18 80 21q39 8 43 8q10 2 18 6l14 29l17 37q2 8 -10.5 30.5t-26.5 42.5q-27 37 -94 37q-45 0 -101 -20q-45 -20 -74.5 -64.5t-52.5 -44.5t-79 46t-56 112q0 74 68 133q53 47 164 80q33 10 69.5 14t81.5 4 q492 0 492 -446l4 -82v-12v-152v-16l2 -144v-57v-100l-2 -162q-10 -41 -47 -41h-410h-49q-37 6 -57 8l-56 8q-98 20 -150.5 52t-96.5 100t-44 170zM213 1378q0 8 18 29q49 45 70 66q61 55 132 101t102 50q41 0 133 -74q53 -43 92 -77q29 -27 58.5 -53.5t29.5 -41.5 q0 -12 -27 -12h-35q-25 0 -36 4q-14 4 -50 29q-49 35 -69 47q-51 33 -101 57q-49 -25 -94 -53.5t-74.5 -49t-48 -27.5t-39.5 -7h-34q-27 0 -27 12zM457 387q0 -12 4 -41q10 -49 33.5 -72.5t54.5 -23.5q41 0 44 28.5t6 49t3 47.5v51q0 49 -10 71.5t-47 22.5q-14 0 -31.5 -9 t-37 -43t-19.5 -81z" />
<glyph unicode="&#xe3;" horiz-adv-x="1073" d="M59 338q0 47 9 86q18 96 102 178q92 88 242 139q61 18 80 21q39 8 43 8q10 2 18 6l14 29l17 37q2 8 -10.5 30.5t-26.5 42.5q-27 37 -94 37q-45 0 -101 -20q-45 -20 -74.5 -64.5t-52.5 -44.5t-79 46t-56 112q0 74 68 133q53 47 164 80q33 10 69.5 14t81.5 4 q492 0 492 -446l4 -82v-12v-152v-16l2 -144v-57v-100l-2 -162q-10 -41 -47 -41h-410h-49q-37 6 -57 8l-56 8q-98 20 -150.5 52t-96.5 100t-44 170zM274 1507q0 16 33 54q18 20 39 43.5t45 52.5q35 37 90 37q35 0 73 -34t79 -69q31 0 55 25q16 20 35.5 39.5t36 27t31.5 7.5 h28q20 0 21 -13q0 -16 -33 -53q-18 -20 -37 -41q-33 -37 -63 -74q-31 -29 -78 -28q-47 0 -94.5 51t-53.5 51q-25 0 -53 -22q-18 -16 -37.5 -34t-36 -25t-30.5 -7h-29q-20 0 -21 12zM457 387q0 -12 4 -41q10 -49 33.5 -72.5t54.5 -23.5q41 0 44 28.5t6 49t3 47.5v51 q0 49 -10 71.5t-47 22.5q-14 0 -31.5 -9t-37 -43t-19.5 -81z" />
<glyph unicode="&#xe4;" horiz-adv-x="1073" d="M59 338q0 47 9 86q18 96 102 178q92 88 242 139q61 18 80 21q39 8 43 8q10 2 18 6l14 29l17 37q2 8 -10.5 30.5t-26.5 42.5q-27 37 -94 37q-45 0 -101 -20q-45 -20 -74.5 -64.5t-52.5 -44.5t-79 46t-56 112q0 74 68 133q53 47 164 80q33 10 69.5 14t81.5 4 q492 0 492 -446l4 -82v-12v-152v-16l2 -144v-57v-100l-2 -162q-10 -41 -47 -41h-410h-49q-37 6 -57 8l-56 8q-98 20 -150.5 52t-96.5 100t-44 170zM266 1516q0 43 31 73.5t74 30.5t76.5 -29.5t33.5 -70.5q0 -43 -30.5 -74t-73.5 -31t-77 30t-34 71zM457 387q0 -12 4 -41 q10 -49 33.5 -72.5t54.5 -23.5q41 0 44 28.5t6 49t3 47.5v51q0 49 -10 71.5t-47 22.5q-14 0 -31.5 -9t-37 -43t-19.5 -81zM651 1516q0 43 31 73.5t74 30.5t76.5 -29.5t33.5 -70.5q0 -43 -30.5 -74t-73.5 -31t-77 30t-34 71z" />
<glyph unicode="&#xe5;" horiz-adv-x="1073" d="M59 338q0 47 9 86q18 96 102 178q92 88 242 139q61 18 80 21q39 8 43 8q10 2 18 6l14 29l17 37q2 8 -10.5 30.5t-26.5 42.5q-27 37 -94 37q-45 0 -101 -20q-45 -20 -74.5 -64.5t-52.5 -44.5t-79 46t-56 112q0 74 68 133q53 47 164 80q33 10 69.5 14t81.5 4 q492 0 492 -446l4 -82v-12v-152v-16l2 -144v-57v-100l-2 -162q-10 -41 -47 -41h-410h-49q-37 6 -57 8l-56 8q-98 20 -150.5 52t-96.5 100t-44 170zM393 1509q0 53 39 90t92 37q55 0 96.5 -35t41.5 -88q0 -55 -39 -92t-93 -37q-57 0 -97 36t-40 89zM442 1505q0 -31 27 -55.5 t63 -24.5q31 0 56.5 25.5t25.5 58.5q0 31 -26.5 55.5t-61.5 24.5q-31 0 -57.5 -24.5t-26.5 -59.5zM457 387q0 -12 4 -41q10 -49 33.5 -72.5t54.5 -23.5q41 0 44 28.5t6 49t3 47.5v51q0 49 -10 71.5t-47 22.5q-14 0 -31.5 -9t-37 -43t-19.5 -81z" />
<glyph unicode="&#xe6;" horiz-adv-x="1665" d="M59 338q0 47 9 86q18 96 102 178q92 88 242 139q61 18 80 21q39 8 43 8q10 2 18 6l14 29l17 37q2 8 -10.5 30.5t-26.5 42.5q-27 37 -94 37q-45 0 -101 -20q-45 -20 -74.5 -64.5t-52.5 -44.5t-79 46t-56 112q0 74 68 133q53 47 164 80q33 10 69.5 14t81.5 4 q225 0 348 -106q80 61 168 87t168 26q195 0 307.5 -92.5t112.5 -229.5q0 -29 -2 -45t-12 -49l-17 -45q-37 -82 -106.5 -129t-265.5 -119l-48 -14q-8 -4 -16 -9q-8 -4 -31 -22l-22 -23q-20 -27 -21 -59q0 -57 56 -82q43 -18 141 -18q41 0 94 16q94 29 146.5 74t72.5 112 q53 -70 53 -151q0 -78 -53 -174q-39 -72 -121 -122t-200 -65q-43 -6 -88 -6q-27 0 -41 2q-45 0 -79 7.5t-83 25.5l-12 -2h-410h-49q-37 6 -57 8l-56 8q-98 20 -150.5 52t-96.5 100t-44 170zM457 387q0 -12 4 -41q10 -49 33.5 -72.5t54.5 -23.5q41 0 44 28.5t6 49t3 47.5v51 q0 49 -10 71.5t-47 22.5q-14 0 -31.5 -9t-37 -43t-19.5 -81zM991 793q0 -63 47 -56q35 4 66 19q43 20 66.5 37.5t33.5 37.5q18 35 15 66q-4 29 -30 47.5t-61 11.5q-47 -10 -85 -47t-48 -80q-4 -29 -4 -36z" />
<glyph unicode="&#xe7;" horiz-adv-x="1013" d="M59 524q0 94 21.5 217t83.5 217q113 170 295 224q92 27 174 26q184 0 274 -118q43 -59 43 -119q0 -51 -29.5 -93t-82.5 -63l-43 -12q-12 23 -22.5 39t-29.5 35q-47 49 -104 49q-84 0 -145 -99q-27 -41 -38.5 -100t-11.5 -141q0 -141 60.5 -219t159.5 -78q43 0 84 14 q76 23 139 107l22 34q59 -20 60 -110q0 -37 -6 -86q-18 -127 -116.5 -205t-258.5 -78v-47q74 0 114 -49q35 -41 35 -96q0 -59 -42 -86t-101 -27q-39 0 -72 8t-55 21q-8 4 -14 8q-2 4 -4 6q14 -2 44.5 -7t55.5 -5q43 0 70.5 18.5t27.5 65.5q0 111 -123 110l4 82l-28 2 q-129 12 -220.5 77t-160.5 192q-59 109 -60 286z" />
<glyph unicode="&#xe8;" horiz-adv-x="1105" d="M57 541q0 274 100.5 436t286.5 217q80 25 160 25q195 0 307.5 -92.5t112.5 -229.5q0 -29 -2 -45t-12 -49l-17 -45q-37 -82 -106.5 -129t-265.5 -119l-48 -14q-8 -4 -16 -9q-8 -4 -31 -22l-22 -23q-20 -27 -21 -59q0 -57 56 -82q43 -18 141 -18q41 0 94 16q94 29 146.5 74 t72.5 112q53 -70 54 -151q0 -78 -54 -174q-39 -72 -120.5 -122t-200.5 -65q-43 -6 -88 -6q-27 0 -41 2q-193 0 -311.5 118t-161.5 347q-12 53 -13 107zM213 1604q0 10 16 16q31 12 123 12q68 0 125 -47q45 -43 71.5 -66.5t56.5 -50t30 -41.5q0 -12 -27 -12h-35q-25 0 -36 4 q-14 4 -50 29q-131 61 -202.5 97t-71.5 59zM438 793q0 -63 47 -56q35 4 66 19q43 20 66.5 37.5t33.5 37.5q18 35 15 66q-4 29 -30 47.5t-61 11.5q-47 -10 -85 -47t-48 -80q-4 -29 -4 -36z" />
<glyph unicode="&#xe9;" horiz-adv-x="1105" d="M57 541q0 274 100.5 436t286.5 217q80 25 160 25q195 0 307.5 -92.5t112.5 -229.5q0 -29 -2 -45t-12 -49l-17 -45q-37 -82 -106.5 -129t-265.5 -119l-48 -14q-8 -4 -16 -9q-8 -4 -31 -22l-22 -23q-20 -27 -21 -59q0 -57 56 -82q43 -18 141 -18q41 0 94 16q94 29 146.5 74 t72.5 112q53 -70 54 -151q0 -78 -54 -174q-39 -72 -120.5 -122t-200.5 -65q-43 -6 -88 -6q-27 0 -41 2q-193 0 -311.5 118t-161.5 347q-12 53 -13 107zM438 793q0 -63 47 -56q35 4 66 19q43 20 66.5 37.5t33.5 37.5q18 35 15 66q-4 29 -30 47.5t-61 11.5q-47 -10 -85 -47 t-48 -80q-4 -29 -4 -36zM463 1440q0 8 18 28q49 45 70 66q78 72 88 78q47 33 106 33q74 0 107 -7.5t33 -21.5q0 -27 -164 -100q-90 -41 -114.5 -57.5t-43 -24t-39.5 -7.5h-35q-27 0 -26 13z" />
<glyph unicode="&#xea;" horiz-adv-x="1105" d="M57 541q0 274 100.5 436t286.5 217q80 25 160 25q195 0 307.5 -92.5t112.5 -229.5q0 -29 -2 -45t-12 -49l-17 -45q-37 -82 -106.5 -129t-265.5 -119l-48 -14q-8 -4 -16 -9q-8 -4 -31 -22l-22 -23q-20 -27 -21 -59q0 -57 56 -82q43 -18 141 -18q41 0 94 16q94 29 146.5 74 t72.5 112q53 -70 54 -151q0 -78 -54 -174q-39 -72 -120.5 -122t-200.5 -65q-43 -6 -88 -6q-27 0 -41 2q-193 0 -311.5 118t-161.5 347q-12 53 -13 107zM274 1378q0 8 19 29q49 45 69 66q61 55 132 101t102 50q41 0 133 -74q53 -43 92 -77q29 -27 58.5 -53.5t29.5 -41.5 q1 -12 -26 -12h-35q-25 0 -37 4q-14 4 -49 29q-49 35 -70 47q-51 33 -100 57q-49 -25 -94 -53.5t-75 -49t-48.5 -27.5t-38.5 -7h-35q-27 0 -27 12zM438 793q0 -63 47 -56q35 4 66 19q43 20 66.5 37.5t33.5 37.5q18 35 15 66q-4 29 -30 47.5t-61 11.5q-47 -10 -85 -47 t-48 -80q-4 -29 -4 -36z" />
<glyph unicode="&#xeb;" horiz-adv-x="1105" d="M57 541q0 274 100.5 436t286.5 217q80 25 160 25q195 0 307.5 -92.5t112.5 -229.5q0 -29 -2 -45t-12 -49l-17 -45q-37 -82 -106.5 -129t-265.5 -119l-48 -14q-8 -4 -16 -9q-8 -4 -31 -22l-22 -23q-20 -27 -21 -59q0 -57 56 -82q43 -18 141 -18q41 0 94 16q94 29 146.5 74 t72.5 112q53 -70 54 -151q0 -78 -54 -174q-39 -72 -120.5 -122t-200.5 -65q-43 -6 -88 -6q-27 0 -41 2q-193 0 -311.5 118t-161.5 347q-12 53 -13 107zM287 1495q0 43 30.5 73.5t73.5 30.5t77 -29.5t34 -70.5q0 -43 -31 -73.5t-74 -30.5t-76.5 29.5t-33.5 70.5zM438 793 q0 -63 47 -56q35 4 66 19q43 20 66.5 37.5t33.5 37.5q18 35 15 66q-4 29 -30 47.5t-61 11.5q-47 -10 -85 -47t-48 -80q-4 -29 -4 -36zM672 1495q0 43 30.5 73.5t73.5 30.5t77 -29.5t34 -70.5q0 -43 -31 -73.5t-74 -30.5t-76.5 29.5t-33.5 70.5z" />
<glyph unicode="&#xec;" horiz-adv-x="665" d="M8 1604q0 10 17 16q31 12 122 12q68 0 125 -47q45 -43 72 -66.5t56.5 -50t29.5 -41.5q0 -12 -27 -12h-34q-25 0 -37 4q-14 4 -49 29q-131 61 -203 97t-72 59zM104 502v293q0 244 13.5 314.5t52.5 70.5h301q41 0 41 -80q0 -29 -2 -45l-2 -15l-6 -77l-4 -56v-39 q0 -68 2 -130t4 -122l6 -69l6 -62l8 -96l15 -125l4 -31q20 -141 20 -190q0 -43 -18 -43h-377q-25 0 -37 51q-18 72 -18 242l-7 174z" />
<glyph unicode="&#xed;" horiz-adv-x="665" d="M104 502v293q0 244 13.5 314.5t52.5 70.5h301q41 0 41 -80q0 -29 -2 -45l-2 -15l-6 -77l-4 -56v-39q0 -68 2 -130t4 -122l6 -69l6 -62l8 -96l15 -125l4 -31q20 -141 20 -190q0 -43 -18 -43h-377q-25 0 -37 51q-18 72 -18 242l-7 174zM238 1399q0 8 18 28q49 45 70 66 q78 72 88 78q47 33 106 33q74 0 106.5 -7.5t32.5 -21.5q0 -27 -163 -100q-90 -41 -115 -57.5t-43.5 -24t-38.5 -7.5h-35q-27 0 -26 13z" />
<glyph unicode="&#xee;" horiz-adv-x="665" d="M29 1378q0 8 18 29q49 45 70 66q61 55 131.5 101t101.5 50q41 0 133 -74q53 -43 92 -77q29 -27 59 -53.5t30 -41.5q0 -12 -27 -12h-35q-25 0 -37 4q-14 4 -49 29q-49 35 -70 47q-51 33 -100 57q-49 -25 -94 -53.5t-75 -49t-48 -27.5t-39 -7h-35q-27 0 -26 12zM104 502 v293q0 244 13.5 314.5t52.5 70.5h301q41 0 41 -80q0 -29 -2 -45l-2 -15l-6 -77l-4 -56v-39q0 -68 2 -130t4 -122l6 -69l6 -62l8 -96l15 -125l4 -31q20 -141 20 -190q0 -43 -18 -43h-377q-25 0 -37 51q-18 72 -18 242l-7 174z" />
<glyph unicode="&#xef;" horiz-adv-x="665" d="M41 1536q0 43 30.5 73.5t73.5 30.5t77 -29.5t34 -70.5q0 -43 -30.5 -73.5t-73.5 -30.5t-77 29.5t-34 70.5zM104 502v293q0 244 13.5 314.5t52.5 70.5h301q41 0 41 -80q0 -29 -2 -45l-2 -15l-6 -77l-4 -56v-39q0 -68 2 -130t4 -122l6 -69l6 -62l8 -96l15 -125l4 -31 q20 -141 20 -190q0 -43 -18 -43h-377q-25 0 -37 51q-18 72 -18 242l-7 174zM426 1536q0 43 30.5 73.5t73.5 30.5t77 -29.5t34 -70.5q0 -43 -30.5 -73.5t-73.5 -30.5t-77 29.5t-34 70.5z" />
<glyph unicode="&#xf0;" d="M68 1681q0 31 20.5 44.5t87.5 25.5l107 18l12 3h61.5t87 -6.5t152.5 -58.5t172 -138l352 129q33 12 60.5 -35t27.5 -158q0 -92 -12 -118.5t-63 -34.5l-160 -60q84 -156 129 -324.5t45 -336.5q0 -324 -127 -484q-113 -141 -346 -172q-41 -6 -80 -6q-90 0 -168 31 q-188 70 -264 174q-82 113 -82 322q0 59 9 103t32 95q43 100 103.5 157.5t146.5 84.5q23 8 52.5 12t51.5 4h25q16 -4 22 -4q133 -25 152 -26q4 0 12 10q8 8 -3 56t-58 177l-371 -135q-31 -10 -54.5 11.5t-29.5 78.5v48.5t7 81t18.5 86t37.5 38.5l207 76q-31 14 -59.5 21.5 t-56.5 7.5q-25 0 -37 -6q-43 -18 -51 -23q-39 -16 -58 -16q-31 0 -67 104l-39 100q-4 33 -4 43zM473 428q0 -31 8 -43q4 -6 32 -32.5t73 -26.5q16 0 35 6q47 16 61 30q27 29 35 101v41q0 23 -8.5 45t-20.5 43q-31 49 -92 49q-53 0 -84 -41q-16 -20 -25.5 -46t-9.5 -69 q-2 -16 -3 -34.5t-1 -22.5z" />
<glyph unicode="&#xf1;" horiz-adv-x="1206" d="M102 438v29l2 188l7 187v35l6 151q0 82 16.5 117t44.5 35h346q27 0 27 -54l-2 -16l45 31q109 61 207 61q115 0 189.5 -87t94.5 -251l17 -153v-43l2 -90v-82v-54l-6 -133l-13 -133q-10 -98 -27.5 -137t-39.5 -39h-344q-20 0 -21 41q0 35 29 184q10 57 17.5 128t7.5 128 l2 62v14v141q0 43 -4.5 82t-11.5 69t-28.5 48t-43.5 18q-6 0 -22.5 -5t-35.5 -19q-43 -39 -56 -76t-13 -147l-5 -168q0 -25 2.5 -55.5t9.5 -105.5t11 -120t9 -67.5t10.5 -59.5t5.5 -55q0 -37 -21 -37h-356q-23 0 -37 57.5t-14 221.5zM377 1507q0 16 33 54q18 20 38.5 43.5 t45.5 52.5q35 37 90 37q35 0 72.5 -34t78.5 -69q31 0 56 25q16 20 35.5 39.5t36 27t30.5 7.5h29q20 0 20 -13q0 -16 -33 -53q-18 -20 -37 -41q-33 -37 -63 -74q-31 -29 -78 -28q-47 0 -94 51t-53 51q-25 0 -54 -22q-18 -16 -37.5 -34t-36 -25t-30.5 -7h-29q-20 0 -20 12z " />
<glyph unicode="&#xf2;" horiz-adv-x="1167" d="M59 565q0 301 131.5 473t358.5 172q272 0 413.5 -172t141.5 -510q0 -31 -3 -50t-24 -105q-53 -184 -135 -272.5t-223 -123.5q-27 -6 -55.5 -10t-61.5 -4q-55 0 -117 12q-188 35 -290 160t-129 365zM233 1604q0 10 17 16q31 12 123 12q68 0 125 -47q45 -43 71.5 -66.5 t56 -50t29.5 -41.5q1 -12 -26 -12h-35q-25 0 -37 4q-14 4 -49 29q-131 61 -203 97t-72 59zM440 627l2 -52q0 -84 20.5 -139t55.5 -84.5t74 -29.5q72 0 104 79q14 41 22.5 79t8.5 116v43v35q-4 27 -4 39q-10 90 -31 129q-37 78 -106 78q-43 0 -79 -34t-50.5 -78t-14.5 -149z " />
<glyph unicode="&#xf3;" horiz-adv-x="1167" d="M59 565q0 301 131.5 473t358.5 172q272 0 413.5 -172t141.5 -510q0 -31 -3 -50t-24 -105q-53 -184 -135 -272.5t-223 -123.5q-27 -6 -55.5 -10t-61.5 -4q-55 0 -117 12q-188 35 -290 160t-129 365zM440 627l2 -52q0 -84 20.5 -139t55.5 -84.5t74 -29.5q72 0 104 79 q14 41 22.5 79t8.5 116v43v35q-4 27 -4 39q-10 90 -31 129q-37 78 -106 78q-43 0 -79 -34t-50.5 -78t-14.5 -149zM483 1399q0 8 19 28q49 45 69 66q78 72 88 78q48 33 107 33q74 0 106.5 -7.5t32.5 -21.5q0 -27 -164 -100q-90 -41 -114.5 -57.5t-43 -24t-38.5 -7.5h-35 q-27 0 -27 13z" />
<glyph unicode="&#xf4;" horiz-adv-x="1167" d="M59 565q0 301 131.5 473t358.5 172q272 0 413.5 -172t141.5 -510q0 -31 -3 -50t-24 -105q-53 -184 -135 -272.5t-223 -123.5q-27 -6 -55.5 -10t-61.5 -4q-55 0 -117 12q-188 35 -290 160t-129 365zM274 1378q0 8 19 29q49 45 69 66q61 55 132 101t102 50q41 0 133 -74 q53 -43 92 -77q29 -27 58.5 -53.5t29.5 -41.5q1 -12 -26 -12h-35q-25 0 -37 4q-14 4 -49 29q-49 35 -70 47q-51 33 -100 57q-49 -25 -94 -53.5t-75 -49t-48.5 -27.5t-38.5 -7h-35q-27 0 -27 12zM440 627l2 -52q0 -84 20.5 -139t55.5 -84.5t74 -29.5q72 0 104 79 q14 41 22.5 79t8.5 116v43v35q-4 27 -4 39q-10 90 -31 129q-37 78 -106 78q-43 0 -79 -34t-50.5 -78t-14.5 -149z" />
<glyph unicode="&#xf5;" horiz-adv-x="1167" d="M59 565q0 301 131.5 473t358.5 172q272 0 413.5 -172t141.5 -510q0 -31 -3 -50t-24 -105q-53 -184 -135 -272.5t-223 -123.5q-27 -6 -55.5 -10t-61.5 -4q-55 0 -117 12q-188 35 -290 160t-129 365zM336 1507q0 16 33 54q18 20 38.5 43.5t45.5 52.5q35 37 90 37 q35 0 72.5 -34t78.5 -69q31 0 56 25q16 20 35.5 39.5t36 27t30.5 7.5h29q20 0 20 -13q0 -16 -33 -53q-18 -20 -37 -41q-33 -37 -63 -74q-31 -29 -78 -28q-47 0 -94 51t-53 51q-25 0 -54 -22q-18 -16 -37.5 -34t-36 -25t-30.5 -7h-29q-20 0 -20 12zM440 627l2 -52 q0 -84 20.5 -139t55.5 -84.5t74 -29.5q72 0 104 79q14 41 22.5 79t8.5 116v43v35q-4 27 -4 39q-10 90 -31 129q-37 78 -106 78q-43 0 -79 -34t-50.5 -78t-14.5 -149z" />
<glyph unicode="&#xf6;" horiz-adv-x="1167" d="M59 565q0 301 131.5 473t358.5 172q272 0 413.5 -172t141.5 -510q0 -31 -3 -50t-24 -105q-53 -184 -135 -272.5t-223 -123.5q-27 -6 -55.5 -10t-61.5 -4q-55 0 -117 12q-188 35 -290 160t-129 365zM266 1516q0 43 31 73.5t74 30.5t76.5 -29.5t33.5 -70.5q0 -43 -30.5 -74 t-73.5 -31t-77 30t-34 71zM440 627l2 -52q0 -84 20.5 -139t55.5 -84.5t74 -29.5q72 0 104 79q14 41 22.5 79t8.5 116v43v35q-4 27 -4 39q-10 90 -31 129q-37 78 -106 78q-43 0 -79 -34t-50.5 -78t-14.5 -149zM651 1516q0 43 31 73.5t74 30.5t76.5 -29.5t33.5 -70.5 q0 -43 -30.5 -74t-73.5 -31t-77 30t-34 71z" />
<glyph unicode="&#xf8;" horiz-adv-x="1167" d="M59 565q0 301 131.5 473t358.5 172q193 0 313 -73l23 32q25 39 48 71t42 58q8 0 32.5 4.5t26.5 4.5q23 0 23 -19q0 -14 -13.5 -42.5t-42.5 -71.5l-61 -95q88 -84 126 -219t38 -332q0 -31 -3 -50t-24 -105q-53 -184 -135 -272.5t-223 -123.5q-27 -6 -55.5 -10t-61.5 -4 q-55 0 -117 12q-115 23 -194 72l-62 -92q-25 -25 -73 -25q-14 0 -35 4q-2 2 0 17l98 155q-123 127 -153 394zM440 627l2 -52q0 -29 2.5 -45t8.5 -45l231 373q-37 61 -98 62q-43 0 -79 -34t-50.5 -78t-14.5 -149zM498 373l20 -21q35 -31 74 -30q72 0 104 79q14 41 22.5 79 t8.5 116v43v35q-4 27 -4 39l-2 18z" />
<glyph unicode="&#xf9;" d="M102 682v45l7 145l16 144q10 90 28.5 127t36.5 37h334q18 0 19 -43q0 -14 -2 -40t-9 -59l-12 -71l-18 -127q-12 -102 -13 -187q0 -184 10.5 -229t14.5 -55q2 -8 15.5 -30t31 -28t31.5 -6q23 0 35 10q25 16 39 47t30 121l4 35q6 53 7 88q0 23 -1 48.5t-1 56.5v20l-7 86 l-2 21l-4 36l-8 68l-14 92l-2 13q-12 61 -13 90q0 43 27 43h340q16 0 27.5 -29t21.5 -121l12 -127l4 -127l3 -67l2 -62v-74v-57l-2 -70l-5 -81l-2 -46l-6 -102q0 -121 -17.5 -169t-41.5 -48h-275q-16 0 -32 25l-2 45l-11 53q-25 -27 -51 -47l-51 -31q-68 -39 -96.5 -49 t-73.5 -10q-139 0 -209 87t-100 316q-6 49 -9.5 83t-3.5 112zM233 1604q0 10 17 16q31 12 123 12q68 0 125 -47q45 -43 71.5 -66.5t56 -50t29.5 -41.5q1 -12 -26 -12h-35q-25 0 -37 4q-14 4 -49 29q-131 61 -203 97t-72 59z" />
<glyph unicode="&#xfa;" d="M102 682v45l7 145l16 144q10 90 28.5 127t36.5 37h334q18 0 19 -43q0 -14 -2 -40t-9 -59l-12 -71l-18 -127q-12 -102 -13 -187q0 -184 10.5 -229t14.5 -55q2 -8 15.5 -30t31 -28t31.5 -6q23 0 35 10q25 16 39 47t30 121l4 35q6 53 7 88q0 23 -1 48.5t-1 56.5v20l-7 86 l-2 21l-4 36l-8 68l-14 92l-2 13q-12 61 -13 90q0 43 27 43h340q16 0 27.5 -29t21.5 -121l12 -127l4 -127l3 -67l2 -62v-74v-57l-2 -70l-5 -81l-2 -46l-6 -102q0 -121 -17.5 -169t-41.5 -48h-275q-16 0 -32 25l-2 45l-11 53q-25 -27 -51 -47l-51 -31q-68 -39 -96.5 -49 t-73.5 -10q-139 0 -209 87t-100 316q-6 49 -9.5 83t-3.5 112zM483 1440q0 8 19 28q49 45 69 66q78 72 88 78q48 33 107 33q74 0 106.5 -7.5t32.5 -21.5q0 -27 -164 -100q-90 -41 -114.5 -57.5t-43 -24t-38.5 -7.5h-35q-27 0 -27 13z" />
<glyph unicode="&#xfb;" d="M102 682v45l7 145l16 144q10 90 28.5 127t36.5 37h334q18 0 19 -43q0 -14 -2 -40t-9 -59l-12 -71l-18 -127q-12 -102 -13 -187q0 -184 10.5 -229t14.5 -55q2 -8 15.5 -30t31 -28t31.5 -6q23 0 35 10q25 16 39 47t30 121l4 35q6 53 7 88q0 23 -1 48.5t-1 56.5v20l-7 86 l-2 21l-4 36l-8 68l-14 92l-2 13q-12 61 -13 90q0 43 27 43h340q16 0 27.5 -29t21.5 -121l12 -127l4 -127l3 -67l2 -62v-74v-57l-2 -70l-5 -81l-2 -46l-6 -102q0 -121 -17.5 -169t-41.5 -48h-275q-16 0 -32 25l-2 45l-11 53q-25 -27 -51 -47l-51 -31q-68 -39 -96.5 -49 t-73.5 -10q-139 0 -209 87t-100 316q-6 49 -9.5 83t-3.5 112zM295 1378q0 8 18 29q49 45 70 66q61 55 132 101t101 50q41 0 134 -74q53 -43 92 -77q29 -27 58.5 -53.5t29.5 -41.5q0 -12 -27 -12h-35q-25 0 -37 4q-14 4 -49 29q-49 35 -69 47q-51 33 -101 57 q-49 -25 -94 -53.5t-74.5 -49t-48 -27.5t-39.5 -7h-34q-27 0 -27 12z" />
<glyph unicode="&#xfc;" d="M102 682v45l7 145l16 144q10 90 28.5 127t36.5 37h334q18 0 19 -43q0 -14 -2 -40t-9 -59l-12 -71l-18 -127q-12 -102 -13 -187q0 -184 10.5 -229t14.5 -55q2 -8 15.5 -30t31 -28t31.5 -6q23 0 35 10q25 16 39 47t30 121l4 35q6 53 7 88q0 23 -1 48.5t-1 56.5v20l-7 86 l-2 21l-4 36l-8 68l-14 92l-2 13q-12 61 -13 90q0 43 27 43h340q16 0 27.5 -29t21.5 -121l12 -127l4 -127l3 -67l2 -62v-74v-57l-2 -70l-5 -81l-2 -46l-6 -102q0 -121 -17.5 -169t-41.5 -48h-275q-16 0 -32 25l-2 45l-11 53q-25 -27 -51 -47l-51 -31q-68 -39 -96.5 -49 t-73.5 -10q-139 0 -209 87t-100 316q-6 49 -9.5 83t-3.5 112zM307 1495q0 43 31 73.5t74 30.5t76.5 -29.5t33.5 -70.5q0 -43 -30.5 -73.5t-73.5 -30.5t-77 29.5t-34 70.5zM692 1495q0 43 31 73.5t74 30.5t76.5 -29.5t33.5 -70.5q0 -43 -30.5 -73.5t-73.5 -30.5t-77 29.5 t-34 70.5z" />
<glyph unicode="&#xfd;" horiz-adv-x="1128" d="M29 -154q0 80 6 91q8 14 69 14h29h49q70 0 117 26q98 55 98 132q0 78 -104 206q-53 66 -85 126.5t-83 191.5q-23 55 -37 111.5t-22.5 118t-10.5 103.5t-2 83q0 37 2 45q10 53 18.5 69.5t20.5 16.5h324q25 0 35 -23.5t10 -91.5v-57l-2 -54v-47t10 -98l6 -45l15 -105 q12 -82 29.5 -118.5t45.5 -48.5q39 -14 60 16l26 61l23 78l4 15l12 71q18 109 19 180v33q-4 20 -4 31l-15 153q0 23 11.5 36.5t29.5 13.5h322q14 0 22 -37t8 -84q0 -59 -6 -112.5t-10 -84.5l-37 -241l-2 -19q-25 -121 -72 -248l-49 -112q-74 -154 -149.5 -253.5 t-175.5 -174.5q-72 -55 -144.5 -96.5t-113.5 -51.5q-158 -43 -215 -43q-49 0 -64.5 29t-15.5 104q0 23 -1 45.5t-1 44.5zM483 1399q0 8 19 28q49 45 69 66q78 72 88 78q48 33 107 33q74 0 106.5 -7.5t32.5 -21.5q0 -27 -164 -100q-90 -41 -114.5 -57.5t-43 -24t-38.5 -7.5 h-35q-27 0 -27 13z" />
<glyph unicode="&#xff;" horiz-adv-x="1128" d="M29 -154q0 80 6 91q8 14 69 14h29h49q70 0 117 26q98 55 98 132q0 78 -104 206q-53 66 -85 126.5t-83 191.5q-23 55 -37 111.5t-22.5 118t-10.5 103.5t-2 83q0 37 2 45q10 53 18.5 69.5t20.5 16.5h324q25 0 35 -23.5t10 -91.5v-57l-2 -54v-47t10 -98l6 -45l15 -105 q12 -82 29.5 -118.5t45.5 -48.5q39 -14 60 16l26 61l23 78l4 15l12 71q18 109 19 180v33q-4 20 -4 31l-15 153q0 23 11.5 36.5t29.5 13.5h322q14 0 22 -37t8 -84q0 -59 -6 -112.5t-10 -84.5l-37 -241l-2 -19q-25 -121 -72 -248l-49 -112q-74 -154 -149.5 -253.5 t-175.5 -174.5q-72 -55 -144.5 -96.5t-113.5 -51.5q-158 -43 -215 -43q-49 0 -64.5 29t-15.5 104q0 23 -1 45.5t-1 44.5zM287 1516q0 43 30.5 73.5t73.5 30.5t77 -29.5t34 -70.5q0 -43 -31 -74t-74 -31t-76.5 30t-33.5 71zM672 1516q0 43 30.5 73.5t73.5 30.5t77 -29.5 t34 -70.5q0 -43 -31 -74t-74 -31t-76.5 30t-33.5 71z" />
<glyph unicode="&#x152;" horiz-adv-x="2072" d="M59 565q0 156 47 314q33 109 76 200q37 82 80 144q66 92 133.5 152.5t132.5 88.5q100 45 189 45q80 0 162 -34.5t170 -110.5l14 -12q20 74 55 98.5t113 24.5h700q37 0 68 -10.5t22 -32.5q-14 -39 -36 -74l-37 -86q-16 -45 -19 -49q-12 -29 -28 -29q-10 0 -34 9t-50 22 q-59 20 -95 24t-43 4q-18 2 -39 0q-113 0 -174 -47t-86 -143q-6 -25 -6 -43q0 -51 62 -51q20 0 32 2l93 22q20 6 40.5 9.5t51.5 3.5l24 2q104 0 137 -11.5t33 -46.5q0 -14 -2 -22l-24 -56q-25 -59 -29 -71q-16 -43 -27.5 -84t-50.5 -41t-119 33q-14 6 -24 4q-31 0 -58 -15 q-8 -4 -61 -41q-33 -23 -52.5 -67.5t-19.5 -110.5q0 -100 63.5 -165.5t166.5 -65.5q20 0 50 3t69.5 14t64.5 24l86 51q8 8 24.5 -6.5t43.5 -71.5l6 -14l24 -62l35 -73q16 -33 21.5 -49.5t5.5 -26.5q0 -37 -33 -37h-958q-18 0 -29 16l-64 -12l-71 -4h-471q-135 0 -228 115 q-100 125 -123 354q-2 33 -3 57.5t-1 38.5zM479 578q0 -133 53.5 -188.5t172.5 -55.5q115 0 161.5 37t71.5 147q8 27 8 72q0 76 -35 235q-8 31 -13 54.5t-21 66.5q-29 78 -39.5 100.5t-42.5 77.5q-35 49 -78 50q-47 0 -82 -49.5t-53.5 -88.5t-47 -124t-42 -168.5 t-13.5 -165.5z" />
<glyph unicode="&#x153;" horiz-adv-x="1802" d="M59 565q0 301 131.5 473t358.5 172q121 0 218 -31.5t169 -97.5q84 78 205 113q80 25 159 25q195 0 307.5 -92.5t112.5 -229.5q0 -29 -2 -45t-12 -49l-16 -45q-37 -82 -107 -129t-266 -119l-47 -14q-8 -4 -17 -9q-8 -4 -30 -22l-23 -23q-20 -27 -20 -59q0 -57 55 -82 q43 -18 141 -18q41 0 94 16q94 29 146.5 74t73.5 112q53 -70 53 -151q0 -78 -53 -174q-39 -72 -121 -122t-201 -65q-43 -6 -88 -6q-27 0 -41 2q-90 0 -167 32t-140 89q-78 -82 -213 -113q-27 -6 -55.5 -10t-61.5 -4q-55 0 -117 12q-188 35 -290.5 160t-128.5 365zM440 627 l2 -52q0 -84 20.5 -139t55.5 -84.5t74 -29.5q72 0 104 79q14 41 22.5 79t8.5 116v43v35q-4 27 -4 39q-10 90 -31 129q-37 78 -106 78q-43 0 -79 -34t-50.5 -78t-14.5 -149zM1135 793q0 -63 47 -56q35 4 65 19q43 20 66.5 37.5t34.5 37.5q18 35 14 66q-4 29 -29.5 47.5 t-60.5 11.5q-47 -10 -85 -47t-48 -80q-4 -29 -4 -36z" />
<glyph unicode="&#x178;" horiz-adv-x="1257" d="M6 1356q0 63 20.5 91t57.5 28h350q25 0 30 -25t5 -127v-47q0 -68 8 -115t25 -94q29 -82 53 -121q37 -59 78 -59q16 0 28.5 15.5t26.5 40t23 38.5l53 98l18 49q14 51 21.5 94.5t7.5 82.5q0 51 -2 71.5t-6 42.5q-4 23 8 39.5t31 16.5h321q39 0 58.5 -28t19.5 -93 q0 -41 -6 -86t-22.5 -109.5t-53.5 -130t-123 -188.5l-37 -52l-61 -81l-31 -48q-100 -150 -135 -235.5t-35 -198.5v-41v-84q0 -100 -35 -100h-360q-18 0 -30.5 14.5t-12.5 44.5v64q0 74 14.5 131t43 124.5t41 97.5t12.5 40q0 12 -7 31l-139 151l-49 64q-66 90 -113 182 q-39 78 -51 133q-45 188 -45 279zM348 1741q0 43 31 73.5t74 30.5t76.5 -29.5t33.5 -70.5q0 -43 -30.5 -74t-73.5 -31t-77 30t-34 71zM733 1741q0 43 31 73.5t74 30.5t76.5 -29.5t33.5 -70.5q0 -43 -30.5 -74t-73.5 -31t-77 30t-34 71z" />
<glyph unicode="&#x2c6;" horiz-adv-x="712" d="M29 1501q0 8 18 29q49 45 70 65q61 55 131.5 101.5t101.5 50.5q41 0 133 -74q53 -43 92 -78q29 -27 59 -53t30 -41q0 -12 -27 -12h-35q-25 0 -37 4q-14 4 -49 29q-49 35 -70 47q-51 33 -100 57q-49 -25 -94 -53.5t-75 -49t-48 -27.5t-39 -7h-35q-27 0 -26 12z" />
<glyph unicode="&#x2dc;" horiz-adv-x="657" d="M49 1675q0 12 21 13h28q18 0 29 -5q12 -4 36.5 -26.5t49.5 -42.5q23 -14 43 -15q37 41 71.5 72t75.5 31q47 0 78 -29q37 -45 61.5 -72.5t48 -54t23.5 -41.5q0 -12 -20 -12h-29q-18 0 -28 4q-12 4 -39 29q-20 27 -33 39q-25 27 -57 26q-8 0 -57.5 -51t-94.5 -51 q-49 0 -76 22q-35 41 -59.5 68t-48 54.5t-23.5 41.5z" />
<glyph unicode="&#x2000;" horiz-adv-x="955" />
<glyph unicode="&#x2001;" horiz-adv-x="1911" />
<glyph unicode="&#x2002;" horiz-adv-x="955" />
<glyph unicode="&#x2003;" horiz-adv-x="1911" />
<glyph unicode="&#x2004;" horiz-adv-x="637" />
<glyph unicode="&#x2005;" horiz-adv-x="477" />
<glyph unicode="&#x2006;" horiz-adv-x="318" />
<glyph unicode="&#x2007;" horiz-adv-x="318" />
<glyph unicode="&#x2008;" horiz-adv-x="238" />
<glyph unicode="&#x2009;" horiz-adv-x="382" />
<glyph unicode="&#x200a;" horiz-adv-x="106" />
<glyph unicode="&#x2010;" horiz-adv-x="796" d="M72 565q0 20 6 45l37 95q37 74 59.5 98t48.5 24h453q47 0 47 -75q0 -45 -28.5 -125t-48 -106.5t-48.5 -26.5q-8 0 -29 4h-444q-53 0 -53 67z" />
<glyph unicode="&#x2011;" horiz-adv-x="796" d="M72 565q0 20 6 45l37 95q37 74 59.5 98t48.5 24h453q47 0 47 -75q0 -45 -28.5 -125t-48 -106.5t-48.5 -26.5q-8 0 -29 4h-444q-53 0 -53 67z" />
<glyph unicode="&#x2012;" horiz-adv-x="796" d="M72 565q0 20 6 45l37 95q37 74 59.5 98t48.5 24h453q47 0 47 -75q0 -45 -28.5 -125t-48 -106.5t-48.5 -26.5q-8 0 -29 4h-444q-53 0 -53 67z" />
<glyph unicode="&#x2013;" horiz-adv-x="1318" d="M72 565q0 20 6 45l37 95q37 74 59.5 98t48.5 24h944q47 0 47 -75q0 -45 -28.5 -125t-48 -106.5t-47.5 -26.5q-8 0 -29 4h-936q-53 0 -53 67z" />
<glyph unicode="&#x2014;" horiz-adv-x="1150" d="M-14 516v221h1179v-221h-1179z" />
<glyph unicode="&#x2018;" horiz-adv-x="563" d="M74 1190q0 27 6 55q20 129 166 199l35 14l12 4l63 19l11 4l30 12l-20 -45q-23 -63 -23 -102q0 -80 101 -136l28 -12q12 -4 2 -28q-2 -6 -10 -15q-27 -25 -55 -49l-8 -8l-64 -53l-57 -45q-23 -16 -51 -17q-43 0 -85 28.5t-61.5 75t-19.5 99.5z" />
<glyph unicode="&#x2019;" horiz-adv-x="563" d="M74 1319q2 6 10 14q27 25 55 49l11 9l63 53l55 45q23 16 54 16q98 0 147 -106q8 -16 12 -44t4 -57q0 -35 -4 -51q-25 -129 -166 -198l-36 -15l-13 -4l-61 -18l-10 -4l-33 -13q16 29 20 45q23 63 23 103q0 80 -101 135l-28 12q-10 4 -2 29z" />
<glyph unicode="&#x201a;" horiz-adv-x="563" d="M74 197q2 6 10 14q27 25 55 49l11 6l63 56l55 45q20 14 51 14q41 0 84 -28.5t66 -78.5q16 -39 16 -98q0 -35 -4 -53q-25 -131 -166 -197l-36 -14l-13 -4l-61 -21l-10 -2l-33 -14l20 45q23 63 23 104q0 80 -101 136l-28 12q-10 4 -2 29z" />
<glyph unicode="&#x201c;" horiz-adv-x="1026" d="M74 1190q0 27 6 55q20 129 166 199l35 14l12 4l63 19l11 4l30 12l-20 -45q-23 -63 -23 -102q0 -80 101 -136l28 -12q12 -4 2 -28q-2 -6 -10 -15q-27 -25 -55 -49l-8 -8l-64 -53l-57 -45q-23 -16 -51 -17q-43 0 -85 28.5t-61.5 75t-19.5 99.5zM549 1190q0 27 6 55 q20 129 166 199l35 14l12 4l63 19l11 4l30 12l-20 -45q-23 -63 -23 -102q0 -80 101 -136l28 -12q12 -4 3 -28q-2 -6 -11 -15q-27 -25 -55 -49l-8 -8l-64 -53l-57 -45q-23 -16 -51 -17q-43 0 -85 28.5t-61.5 75t-19.5 99.5z" />
<glyph unicode="&#x201d;" horiz-adv-x="1032" d="M74 1319q2 6 10 14q27 25 55 49l11 9l63 53l55 45q23 16 54 16q98 0 147 -106q8 -16 12 -44t4 -57q0 -35 -4 -51q-25 -129 -166 -198l-36 -15l-13 -4l-61 -18l-10 -4l-33 -13q16 29 20 45q23 63 23 103q0 80 -101 135l-28 12q-10 4 -2 29zM565 1319q2 6 10 14 q27 25 56 49l10 9l64 53l55 45q23 16 53 16q98 0 148 -106q8 -16 12 -44t4 -57q0 -35 -4 -51q-25 -129 -166 -198l-37 -15l-12 -4l-62 -18l-10 -4l-33 -13q16 29 21 45q23 63 22 103q0 80 -100 135l-29 12q-10 4 -2 29z" />
<glyph unicode="&#x201e;" horiz-adv-x="1019" d="M74 197q2 6 10 14q27 25 55 49l11 6l63 56l55 45q20 14 51 14q41 0 84 -28.5t66 -78.5q16 -39 16 -98q0 -35 -4 -53q-25 -131 -166 -197l-36 -14l-13 -4l-61 -21l-10 -2l-33 -14l20 45q23 63 23 104q0 80 -101 136l-28 12q-10 4 -2 29zM578 195q2 6 10 14q27 25 55 49 l10 6l64 55l55 46q20 14 51 14q41 0 84 -28.5t66 -78.5q16 -39 16 -98q0 -35 -4 -53q-25 -131 -166 -197l-37 -14l-12 -4l-61 -21l-11 -2l-32 -14l20 45q23 63 23 104q0 80 -101 136l-28 12q-10 4 -2 29z" />
<glyph unicode="&#x2022;" horiz-adv-x="505" d="M45 838q0 41 9 71.5t32 59.5q72 63 176 63q49 0 92 -14q43 -20 58 -33q25 -23 45 -76q14 -31 14 -75q0 -90 -65 -142q-27 -27 -67 -38t-87 -11q-18 0 -38.5 2t-39.5 4q-88 35 -123 123q-6 31 -6 66z" />
<glyph unicode="&#x2026;" horiz-adv-x="1212" d="M20 156q0 66 49.5 112.5t114.5 46.5q68 0 119 -44.5t51 -110.5t-49 -113t-115 -47q-68 0 -119 45t-51 111zM430 156q0 66 49 112.5t115 46.5q68 0 119 -44.5t51 -110.5t-49 -113t-115 -47q-68 0 -119 45t-51 111zM840 156q0 66 49 112.5t115 46.5q68 0 119 -44.5 t51 -110.5t-49.5 -113t-114.5 -47q-68 0 -119 45t-51 111z" />
<glyph unicode="&#x202f;" horiz-adv-x="382" />
<glyph unicode="&#x2039;" horiz-adv-x="466" d="M35 788q0 45 65 136q49 70 131 157q33 37 70 76t53 39t17 -35v-47q0 -29 -7.5 -49.5t-35.5 -60.5q-41 -59 -62 -91q-45 -72 -73 -131q29 -61 71 -129q33 -51 62.5 -92t37 -60.5t7.5 -49.5v-48q0 -35 -17 -34q-18 0 -71 57q-27 29 -52 57q-72 78 -131 168q-66 98 -65 137z " />
<glyph unicode="&#x203a;" horiz-adv-x="466" d="M76 395v47q0 31 6 47.5t34.5 57.5t63.5 96q47 76 74 131q-25 51 -74 129q-33 51 -59.5 90t-35.5 63.5t-9 49.5v47q0 35 16 35q18 0 72 -58q25 -29 51 -57q82 -88 131 -158q66 -90 66 -135q0 -37 -64.5 -134t-132.5 -171q-35 -37 -70.5 -76t-52.5 -39q-16 0 -16 35z" />
<glyph unicode="&#x205f;" horiz-adv-x="477" />
<glyph unicode="&#x25fc;" horiz-adv-x="1177" d="M0 0v1178h1178v-1178h-1178z" />
</font>
</defs>
</svg>
